<mxfile host="Electron" modified="2023-10-17T15:49:03.488Z" agent="Mozilla/5.0 (Macintosh; Intel Mac OS X 10_15_7) AppleWebKit/537.36 (KHTML, like Gecko) draw.io/21.5.1 Chrome/112.0.5615.204 Electron/24.6.0 Safari/537.36" etag="ImxTaqYbqq68YX81AKQM" version="21.5.1" type="device">
  <diagram id="NBmDkxJyAAs_LilBsiCP" name="排序">
    <mxGraphModel dx="5784" dy="3059" grid="1" gridSize="10" guides="0" tooltips="1" connect="1" arrows="1" fold="1" page="0" pageScale="1" pageWidth="3300" pageHeight="4681" background="none" math="0" shadow="0">
      <root>
        <mxCell id="0" />
        <mxCell id="1" parent="0" />
        <mxCell id="PHZYu98MbgSkmlWvgTVJ-288" value="" style="endArrow=none;dashed=1;html=1;rounded=0;labelBackgroundColor=default;strokeColor=#A8201A;fontFamily=Helvetica;fontSize=11;fontColor=default;endSize=4;shape=connector;" parent="1" edge="1">
          <mxGeometry width="50" height="50" relative="1" as="geometry">
            <mxPoint x="-4720" y="-480" as="sourcePoint" />
            <mxPoint x="-4240" y="-480" as="targetPoint" />
          </mxGeometry>
        </mxCell>
        <mxCell id="FSDtG3Oiy2RMbPVVw-SS-1" value="5" style="rounded=0;whiteSpace=wrap;html=1;strokeWidth=0.5;labelBackgroundColor=none;fillColor=#FAE5C7;strokeColor=#0F8B8D;fontColor=#143642;" parent="1" vertex="1">
          <mxGeometry x="-4500" y="-2040" width="20" height="20" as="geometry" />
        </mxCell>
        <mxCell id="FSDtG3Oiy2RMbPVVw-SS-3" value="2" style="rounded=0;whiteSpace=wrap;html=1;strokeWidth=0.5;labelBackgroundColor=none;fillColor=#FAE5C7;strokeColor=#0F8B8D;fontColor=#143642;" parent="1" vertex="1">
          <mxGeometry x="-4480" y="-2040" width="20" height="20" as="geometry" />
        </mxCell>
        <mxCell id="FSDtG3Oiy2RMbPVVw-SS-4" value="10" style="rounded=0;whiteSpace=wrap;html=1;strokeWidth=0.5;labelBackgroundColor=none;fillColor=#FAE5C7;strokeColor=#0F8B8D;fontColor=#143642;" parent="1" vertex="1">
          <mxGeometry x="-4460" y="-2040" width="20" height="20" as="geometry" />
        </mxCell>
        <mxCell id="FSDtG3Oiy2RMbPVVw-SS-5" value="7" style="rounded=0;whiteSpace=wrap;html=1;strokeWidth=0.5;labelBackgroundColor=none;fillColor=#FAE5C7;strokeColor=#0F8B8D;fontColor=#143642;" parent="1" vertex="1">
          <mxGeometry x="-4440" y="-2040" width="20" height="20" as="geometry" />
        </mxCell>
        <mxCell id="FSDtG3Oiy2RMbPVVw-SS-6" value="6" style="rounded=0;whiteSpace=wrap;html=1;strokeWidth=0.5;labelBackgroundColor=none;fillColor=#FAE5C7;strokeColor=#0F8B8D;fontColor=#143642;" parent="1" vertex="1">
          <mxGeometry x="-4420" y="-2040" width="20" height="20" as="geometry" />
        </mxCell>
        <mxCell id="FSDtG3Oiy2RMbPVVw-SS-7" value="3" style="rounded=0;whiteSpace=wrap;html=1;strokeWidth=0.5;labelBackgroundColor=none;fillColor=#FAE5C7;strokeColor=#0F8B8D;fontColor=#143642;" parent="1" vertex="1">
          <mxGeometry x="-4400" y="-2040" width="20" height="20" as="geometry" />
        </mxCell>
        <mxCell id="FSDtG3Oiy2RMbPVVw-SS-8" value="8" style="rounded=0;whiteSpace=wrap;html=1;strokeWidth=0.5;labelBackgroundColor=none;fillColor=#FAE5C7;strokeColor=#0F8B8D;fontColor=#143642;" parent="1" vertex="1">
          <mxGeometry x="-4380" y="-2040" width="20" height="20" as="geometry" />
        </mxCell>
        <mxCell id="FSDtG3Oiy2RMbPVVw-SS-9" value="4" style="rounded=0;whiteSpace=wrap;html=1;strokeWidth=0.5;labelBackgroundColor=none;fillColor=#FAE5C7;strokeColor=#0F8B8D;fontColor=#143642;" parent="1" vertex="1">
          <mxGeometry x="-4360" y="-2040" width="20" height="20" as="geometry" />
        </mxCell>
        <mxCell id="FSDtG3Oiy2RMbPVVw-SS-10" value="" style="endArrow=classic;startArrow=classic;html=1;rounded=0;strokeColor=#A8201A;fontColor=#143642;fillColor=#FAE5C7;endSize=3;startSize=3;" parent="1" edge="1">
          <mxGeometry width="50" height="50" relative="1" as="geometry">
            <mxPoint x="-4496" y="-2010" as="sourcePoint" />
            <mxPoint x="-4466" y="-2010" as="targetPoint" />
          </mxGeometry>
        </mxCell>
        <mxCell id="FSDtG3Oiy2RMbPVVw-SS-11" value="2" style="rounded=0;whiteSpace=wrap;html=1;strokeWidth=0.5;labelBackgroundColor=none;fillColor=#f8cecc;strokeColor=#b85450;" parent="1" vertex="1">
          <mxGeometry x="-4500" y="-2000" width="20" height="20" as="geometry" />
        </mxCell>
        <mxCell id="FSDtG3Oiy2RMbPVVw-SS-12" value="5" style="rounded=0;whiteSpace=wrap;html=1;strokeWidth=0.5;labelBackgroundColor=none;fillColor=#FAE5C7;strokeColor=#0F8B8D;fontColor=#143642;" parent="1" vertex="1">
          <mxGeometry x="-4480" y="-2000" width="20" height="20" as="geometry" />
        </mxCell>
        <mxCell id="FSDtG3Oiy2RMbPVVw-SS-13" value="10" style="rounded=0;whiteSpace=wrap;html=1;strokeWidth=0.5;labelBackgroundColor=none;fillColor=#FAE5C7;strokeColor=#0F8B8D;fontColor=#143642;" parent="1" vertex="1">
          <mxGeometry x="-4460" y="-2000" width="20" height="20" as="geometry" />
        </mxCell>
        <mxCell id="FSDtG3Oiy2RMbPVVw-SS-14" value="7" style="rounded=0;whiteSpace=wrap;html=1;strokeWidth=0.5;labelBackgroundColor=none;fillColor=#FAE5C7;strokeColor=#0F8B8D;fontColor=#143642;" parent="1" vertex="1">
          <mxGeometry x="-4440" y="-2000" width="20" height="20" as="geometry" />
        </mxCell>
        <mxCell id="FSDtG3Oiy2RMbPVVw-SS-15" value="6" style="rounded=0;whiteSpace=wrap;html=1;strokeWidth=0.5;labelBackgroundColor=none;fillColor=#FAE5C7;strokeColor=#0F8B8D;fontColor=#143642;" parent="1" vertex="1">
          <mxGeometry x="-4420" y="-2000" width="20" height="20" as="geometry" />
        </mxCell>
        <mxCell id="FSDtG3Oiy2RMbPVVw-SS-16" value="3" style="rounded=0;whiteSpace=wrap;html=1;strokeWidth=0.5;labelBackgroundColor=none;fillColor=#FAE5C7;strokeColor=#0F8B8D;fontColor=#143642;" parent="1" vertex="1">
          <mxGeometry x="-4400" y="-2000" width="20" height="20" as="geometry" />
        </mxCell>
        <mxCell id="FSDtG3Oiy2RMbPVVw-SS-17" value="8" style="rounded=0;whiteSpace=wrap;html=1;strokeWidth=0.5;labelBackgroundColor=none;fillColor=#FAE5C7;strokeColor=#0F8B8D;fontColor=#143642;" parent="1" vertex="1">
          <mxGeometry x="-4380" y="-2000" width="20" height="20" as="geometry" />
        </mxCell>
        <mxCell id="FSDtG3Oiy2RMbPVVw-SS-18" value="4" style="rounded=0;whiteSpace=wrap;html=1;strokeWidth=0.5;labelBackgroundColor=none;fillColor=#FAE5C7;strokeColor=#0F8B8D;fontColor=#143642;" parent="1" vertex="1">
          <mxGeometry x="-4360" y="-2000" width="20" height="20" as="geometry" />
        </mxCell>
        <mxCell id="FSDtG3Oiy2RMbPVVw-SS-27" value="第1趟&amp;nbsp; 比较7次&amp;nbsp; 交换1次" style="text;html=1;align=center;verticalAlign=middle;resizable=0;points=[];autosize=1;strokeColor=none;fillColor=none;fontColor=#143642;fontSize=12;" parent="1" vertex="1">
          <mxGeometry x="-4650" y="-2026" width="150" height="30" as="geometry" />
        </mxCell>
        <mxCell id="FSDtG3Oiy2RMbPVVw-SS-28" value="2" style="rounded=0;whiteSpace=wrap;html=1;strokeWidth=0.5;labelBackgroundColor=none;fillColor=#f8cecc;strokeColor=#b85450;" parent="1" vertex="1">
          <mxGeometry x="-4500" y="-1960" width="20" height="20" as="geometry" />
        </mxCell>
        <mxCell id="FSDtG3Oiy2RMbPVVw-SS-29" value="3" style="rounded=0;whiteSpace=wrap;html=1;strokeWidth=0.5;labelBackgroundColor=none;fillColor=#f8cecc;strokeColor=#b85450;" parent="1" vertex="1">
          <mxGeometry x="-4480" y="-1960" width="20" height="20" as="geometry" />
        </mxCell>
        <mxCell id="FSDtG3Oiy2RMbPVVw-SS-30" value="10" style="rounded=0;whiteSpace=wrap;html=1;strokeWidth=0.5;labelBackgroundColor=none;fillColor=#FAE5C7;strokeColor=#0F8B8D;fontColor=#143642;" parent="1" vertex="1">
          <mxGeometry x="-4460" y="-1960" width="20" height="20" as="geometry" />
        </mxCell>
        <mxCell id="FSDtG3Oiy2RMbPVVw-SS-31" value="7" style="rounded=0;whiteSpace=wrap;html=1;strokeWidth=0.5;labelBackgroundColor=none;fillColor=#FAE5C7;strokeColor=#0F8B8D;fontColor=#143642;" parent="1" vertex="1">
          <mxGeometry x="-4440" y="-1960" width="20" height="20" as="geometry" />
        </mxCell>
        <mxCell id="FSDtG3Oiy2RMbPVVw-SS-32" value="6" style="rounded=0;whiteSpace=wrap;html=1;strokeWidth=0.5;labelBackgroundColor=none;fillColor=#FAE5C7;strokeColor=#0F8B8D;fontColor=#143642;" parent="1" vertex="1">
          <mxGeometry x="-4420" y="-1960" width="20" height="20" as="geometry" />
        </mxCell>
        <mxCell id="FSDtG3Oiy2RMbPVVw-SS-33" value="5" style="rounded=0;whiteSpace=wrap;html=1;strokeWidth=0.5;labelBackgroundColor=none;fillColor=#FAE5C7;strokeColor=#0F8B8D;fontColor=#143642;" parent="1" vertex="1">
          <mxGeometry x="-4400" y="-1960" width="20" height="20" as="geometry" />
        </mxCell>
        <mxCell id="FSDtG3Oiy2RMbPVVw-SS-34" value="8" style="rounded=0;whiteSpace=wrap;html=1;strokeWidth=0.5;labelBackgroundColor=none;fillColor=#FAE5C7;strokeColor=#0F8B8D;fontColor=#143642;" parent="1" vertex="1">
          <mxGeometry x="-4380" y="-1960" width="20" height="20" as="geometry" />
        </mxCell>
        <mxCell id="FSDtG3Oiy2RMbPVVw-SS-35" value="4" style="rounded=0;whiteSpace=wrap;html=1;strokeWidth=0.5;labelBackgroundColor=none;fillColor=#FAE5C7;strokeColor=#0F8B8D;fontColor=#143642;" parent="1" vertex="1">
          <mxGeometry x="-4360" y="-1960" width="20" height="20" as="geometry" />
        </mxCell>
        <mxCell id="FSDtG3Oiy2RMbPVVw-SS-36" value="" style="endArrow=classic;startArrow=classic;html=1;rounded=0;strokeColor=#A8201A;fontColor=#143642;fillColor=#FAE5C7;endSize=3;startSize=3;" parent="1" edge="1">
          <mxGeometry width="50" height="50" relative="1" as="geometry">
            <mxPoint x="-4470" y="-1970" as="sourcePoint" />
            <mxPoint x="-4390" y="-1970" as="targetPoint" />
          </mxGeometry>
        </mxCell>
        <mxCell id="FSDtG3Oiy2RMbPVVw-SS-37" value="2" style="rounded=0;whiteSpace=wrap;html=1;strokeWidth=0.5;labelBackgroundColor=none;fillColor=#f8cecc;strokeColor=#b85450;" parent="1" vertex="1">
          <mxGeometry x="-4500" y="-1920" width="20" height="20" as="geometry" />
        </mxCell>
        <mxCell id="FSDtG3Oiy2RMbPVVw-SS-38" value="3" style="rounded=0;whiteSpace=wrap;html=1;strokeWidth=0.5;labelBackgroundColor=none;fillColor=#f8cecc;strokeColor=#b85450;" parent="1" vertex="1">
          <mxGeometry x="-4480" y="-1920" width="20" height="20" as="geometry" />
        </mxCell>
        <mxCell id="FSDtG3Oiy2RMbPVVw-SS-39" value="10" style="rounded=0;whiteSpace=wrap;html=1;strokeWidth=0.5;labelBackgroundColor=none;fillColor=#FAE5C7;strokeColor=#0F8B8D;fontColor=#143642;" parent="1" vertex="1">
          <mxGeometry x="-4360" y="-1920" width="20" height="20" as="geometry" />
        </mxCell>
        <mxCell id="FSDtG3Oiy2RMbPVVw-SS-40" value="7" style="rounded=0;whiteSpace=wrap;html=1;strokeWidth=0.5;labelBackgroundColor=none;fillColor=#FAE5C7;strokeColor=#0F8B8D;fontColor=#143642;" parent="1" vertex="1">
          <mxGeometry x="-4440" y="-1920" width="20" height="20" as="geometry" />
        </mxCell>
        <mxCell id="FSDtG3Oiy2RMbPVVw-SS-41" value="6" style="rounded=0;whiteSpace=wrap;html=1;strokeWidth=0.5;labelBackgroundColor=none;fillColor=#FAE5C7;strokeColor=#0F8B8D;fontColor=#143642;" parent="1" vertex="1">
          <mxGeometry x="-4420" y="-1920" width="20" height="20" as="geometry" />
        </mxCell>
        <mxCell id="FSDtG3Oiy2RMbPVVw-SS-42" value="5" style="rounded=0;whiteSpace=wrap;html=1;strokeWidth=0.5;labelBackgroundColor=none;fillColor=#FAE5C7;strokeColor=#0F8B8D;fontColor=#143642;" parent="1" vertex="1">
          <mxGeometry x="-4400" y="-1920" width="20" height="20" as="geometry" />
        </mxCell>
        <mxCell id="FSDtG3Oiy2RMbPVVw-SS-43" value="8" style="rounded=0;whiteSpace=wrap;html=1;strokeWidth=0.5;labelBackgroundColor=none;fillColor=#FAE5C7;strokeColor=#0F8B8D;fontColor=#143642;" parent="1" vertex="1">
          <mxGeometry x="-4380" y="-1920" width="20" height="20" as="geometry" />
        </mxCell>
        <mxCell id="FSDtG3Oiy2RMbPVVw-SS-44" value="4" style="rounded=0;whiteSpace=wrap;html=1;strokeWidth=0.5;labelBackgroundColor=none;fillColor=#f8cecc;strokeColor=#b85450;" parent="1" vertex="1">
          <mxGeometry x="-4460" y="-1920" width="20" height="20" as="geometry" />
        </mxCell>
        <mxCell id="FSDtG3Oiy2RMbPVVw-SS-45" value="" style="endArrow=classic;startArrow=classic;html=1;rounded=0;strokeColor=#A8201A;fontColor=#143642;fillColor=#FAE5C7;endSize=3;startSize=3;" parent="1" edge="1">
          <mxGeometry width="50" height="50" relative="1" as="geometry">
            <mxPoint x="-4450" y="-1930" as="sourcePoint" />
            <mxPoint x="-4350" y="-1930" as="targetPoint" />
          </mxGeometry>
        </mxCell>
        <mxCell id="FSDtG3Oiy2RMbPVVw-SS-46" value="2" style="rounded=0;whiteSpace=wrap;html=1;strokeWidth=0.5;labelBackgroundColor=none;fillColor=#f8cecc;strokeColor=#b85450;" parent="1" vertex="1">
          <mxGeometry x="-4500" y="-1880" width="20" height="20" as="geometry" />
        </mxCell>
        <mxCell id="FSDtG3Oiy2RMbPVVw-SS-47" value="3" style="rounded=0;whiteSpace=wrap;html=1;strokeWidth=0.5;labelBackgroundColor=none;fillColor=#f8cecc;strokeColor=#b85450;" parent="1" vertex="1">
          <mxGeometry x="-4480" y="-1880" width="20" height="20" as="geometry" />
        </mxCell>
        <mxCell id="FSDtG3Oiy2RMbPVVw-SS-48" value="10" style="rounded=0;whiteSpace=wrap;html=1;strokeWidth=0.5;labelBackgroundColor=none;fillColor=#FAE5C7;strokeColor=#0F8B8D;fontColor=#143642;" parent="1" vertex="1">
          <mxGeometry x="-4360" y="-1880" width="20" height="20" as="geometry" />
        </mxCell>
        <mxCell id="FSDtG3Oiy2RMbPVVw-SS-49" value="5" style="rounded=0;whiteSpace=wrap;html=1;strokeWidth=0.5;labelBackgroundColor=none;fillColor=#f8cecc;strokeColor=#b85450;" parent="1" vertex="1">
          <mxGeometry x="-4440" y="-1880" width="20" height="20" as="geometry" />
        </mxCell>
        <mxCell id="FSDtG3Oiy2RMbPVVw-SS-50" value="6" style="rounded=0;whiteSpace=wrap;html=1;strokeWidth=0.5;labelBackgroundColor=none;fillColor=#FAE5C7;strokeColor=#0F8B8D;fontColor=#143642;" parent="1" vertex="1">
          <mxGeometry x="-4420" y="-1880" width="20" height="20" as="geometry" />
        </mxCell>
        <mxCell id="FSDtG3Oiy2RMbPVVw-SS-51" value="7" style="rounded=0;whiteSpace=wrap;html=1;strokeWidth=0.5;labelBackgroundColor=none;fillColor=#FAE5C7;strokeColor=#0F8B8D;fontColor=#143642;" parent="1" vertex="1">
          <mxGeometry x="-4400" y="-1880" width="20" height="20" as="geometry" />
        </mxCell>
        <mxCell id="FSDtG3Oiy2RMbPVVw-SS-52" value="8" style="rounded=0;whiteSpace=wrap;html=1;strokeWidth=0.5;labelBackgroundColor=none;fillColor=#FAE5C7;strokeColor=#0F8B8D;fontColor=#143642;" parent="1" vertex="1">
          <mxGeometry x="-4380" y="-1880" width="20" height="20" as="geometry" />
        </mxCell>
        <mxCell id="FSDtG3Oiy2RMbPVVw-SS-53" value="4" style="rounded=0;whiteSpace=wrap;html=1;strokeWidth=0.5;labelBackgroundColor=none;fillColor=#f8cecc;strokeColor=#b85450;" parent="1" vertex="1">
          <mxGeometry x="-4460" y="-1880" width="20" height="20" as="geometry" />
        </mxCell>
        <mxCell id="FSDtG3Oiy2RMbPVVw-SS-54" value="" style="endArrow=classic;startArrow=classic;html=1;rounded=0;strokeColor=#A8201A;fontColor=#143642;fillColor=#FAE5C7;endSize=3;startSize=3;" parent="1" edge="1">
          <mxGeometry width="50" height="50" relative="1" as="geometry">
            <mxPoint x="-4430" y="-1890" as="sourcePoint" />
            <mxPoint x="-4390" y="-1890" as="targetPoint" />
          </mxGeometry>
        </mxCell>
        <mxCell id="FSDtG3Oiy2RMbPVVw-SS-55" value="2" style="rounded=0;whiteSpace=wrap;html=1;strokeWidth=0.5;labelBackgroundColor=none;fillColor=#f8cecc;strokeColor=#b85450;" parent="1" vertex="1">
          <mxGeometry x="-4500" y="-1840" width="20" height="20" as="geometry" />
        </mxCell>
        <mxCell id="FSDtG3Oiy2RMbPVVw-SS-56" value="3" style="rounded=0;whiteSpace=wrap;html=1;strokeWidth=0.5;labelBackgroundColor=none;fillColor=#f8cecc;strokeColor=#b85450;" parent="1" vertex="1">
          <mxGeometry x="-4480" y="-1840" width="20" height="20" as="geometry" />
        </mxCell>
        <mxCell id="FSDtG3Oiy2RMbPVVw-SS-57" value="10" style="rounded=0;whiteSpace=wrap;html=1;strokeWidth=0.5;labelBackgroundColor=none;fillColor=#FAE5C7;strokeColor=#0F8B8D;fontColor=#143642;" parent="1" vertex="1">
          <mxGeometry x="-4360" y="-1840" width="20" height="20" as="geometry" />
        </mxCell>
        <mxCell id="FSDtG3Oiy2RMbPVVw-SS-58" value="5" style="rounded=0;whiteSpace=wrap;html=1;strokeWidth=0.5;labelBackgroundColor=none;fillColor=#f8cecc;strokeColor=#b85450;" parent="1" vertex="1">
          <mxGeometry x="-4440" y="-1840" width="20" height="20" as="geometry" />
        </mxCell>
        <mxCell id="FSDtG3Oiy2RMbPVVw-SS-59" value="6" style="rounded=0;whiteSpace=wrap;html=1;strokeWidth=0.5;labelBackgroundColor=none;fillColor=#f8cecc;strokeColor=#b85450;" parent="1" vertex="1">
          <mxGeometry x="-4420" y="-1840" width="20" height="20" as="geometry" />
        </mxCell>
        <mxCell id="FSDtG3Oiy2RMbPVVw-SS-60" value="7" style="rounded=0;whiteSpace=wrap;html=1;strokeWidth=0.5;labelBackgroundColor=none;fillColor=#FAE5C7;strokeColor=#0F8B8D;fontColor=#143642;" parent="1" vertex="1">
          <mxGeometry x="-4400" y="-1840" width="20" height="20" as="geometry" />
        </mxCell>
        <mxCell id="FSDtG3Oiy2RMbPVVw-SS-61" value="8" style="rounded=0;whiteSpace=wrap;html=1;strokeWidth=0.5;labelBackgroundColor=none;fillColor=#FAE5C7;strokeColor=#0F8B8D;fontColor=#143642;" parent="1" vertex="1">
          <mxGeometry x="-4380" y="-1840" width="20" height="20" as="geometry" />
        </mxCell>
        <mxCell id="FSDtG3Oiy2RMbPVVw-SS-62" value="4" style="rounded=0;whiteSpace=wrap;html=1;strokeWidth=0.5;labelBackgroundColor=none;fillColor=#f8cecc;strokeColor=#b85450;" parent="1" vertex="1">
          <mxGeometry x="-4460" y="-1840" width="20" height="20" as="geometry" />
        </mxCell>
        <mxCell id="FSDtG3Oiy2RMbPVVw-SS-63" value="2" style="rounded=0;whiteSpace=wrap;html=1;strokeWidth=0.5;labelBackgroundColor=none;fillColor=#f8cecc;strokeColor=#b85450;" parent="1" vertex="1">
          <mxGeometry x="-4500" y="-1800" width="20" height="20" as="geometry" />
        </mxCell>
        <mxCell id="FSDtG3Oiy2RMbPVVw-SS-64" value="3" style="rounded=0;whiteSpace=wrap;html=1;strokeWidth=0.5;labelBackgroundColor=none;fillColor=#f8cecc;strokeColor=#b85450;" parent="1" vertex="1">
          <mxGeometry x="-4480" y="-1800" width="20" height="20" as="geometry" />
        </mxCell>
        <mxCell id="FSDtG3Oiy2RMbPVVw-SS-65" value="10" style="rounded=0;whiteSpace=wrap;html=1;strokeWidth=0.5;labelBackgroundColor=none;fillColor=#FAE5C7;strokeColor=#0F8B8D;fontColor=#143642;" parent="1" vertex="1">
          <mxGeometry x="-4360" y="-1800" width="20" height="20" as="geometry" />
        </mxCell>
        <mxCell id="FSDtG3Oiy2RMbPVVw-SS-66" value="5" style="rounded=0;whiteSpace=wrap;html=1;strokeWidth=0.5;labelBackgroundColor=none;fillColor=#f8cecc;strokeColor=#b85450;" parent="1" vertex="1">
          <mxGeometry x="-4440" y="-1800" width="20" height="20" as="geometry" />
        </mxCell>
        <mxCell id="FSDtG3Oiy2RMbPVVw-SS-67" value="6" style="rounded=0;whiteSpace=wrap;html=1;strokeWidth=0.5;labelBackgroundColor=none;fillColor=#f8cecc;strokeColor=#b85450;" parent="1" vertex="1">
          <mxGeometry x="-4420" y="-1800" width="20" height="20" as="geometry" />
        </mxCell>
        <mxCell id="FSDtG3Oiy2RMbPVVw-SS-68" value="7" style="rounded=0;whiteSpace=wrap;html=1;strokeWidth=0.5;labelBackgroundColor=none;fillColor=#f8cecc;strokeColor=#b85450;" parent="1" vertex="1">
          <mxGeometry x="-4400" y="-1800" width="20" height="20" as="geometry" />
        </mxCell>
        <mxCell id="FSDtG3Oiy2RMbPVVw-SS-69" value="8" style="rounded=0;whiteSpace=wrap;html=1;strokeWidth=0.5;labelBackgroundColor=none;fillColor=#FAE5C7;strokeColor=#0F8B8D;fontColor=#143642;" parent="1" vertex="1">
          <mxGeometry x="-4380" y="-1800" width="20" height="20" as="geometry" />
        </mxCell>
        <mxCell id="FSDtG3Oiy2RMbPVVw-SS-70" value="4" style="rounded=0;whiteSpace=wrap;html=1;strokeWidth=0.5;labelBackgroundColor=none;fillColor=#f8cecc;strokeColor=#b85450;" parent="1" vertex="1">
          <mxGeometry x="-4460" y="-1800" width="20" height="20" as="geometry" />
        </mxCell>
        <mxCell id="FSDtG3Oiy2RMbPVVw-SS-71" value="2" style="rounded=0;whiteSpace=wrap;html=1;strokeWidth=0.5;labelBackgroundColor=none;fillColor=#f8cecc;strokeColor=#b85450;" parent="1" vertex="1">
          <mxGeometry x="-4500" y="-1760" width="20" height="20" as="geometry" />
        </mxCell>
        <mxCell id="FSDtG3Oiy2RMbPVVw-SS-72" value="3" style="rounded=0;whiteSpace=wrap;html=1;strokeWidth=0.5;labelBackgroundColor=none;fillColor=#f8cecc;strokeColor=#b85450;" parent="1" vertex="1">
          <mxGeometry x="-4480" y="-1760" width="20" height="20" as="geometry" />
        </mxCell>
        <mxCell id="FSDtG3Oiy2RMbPVVw-SS-73" value="10" style="rounded=0;whiteSpace=wrap;html=1;strokeWidth=0.5;labelBackgroundColor=none;fillColor=#FAE5C7;strokeColor=#0F8B8D;fontColor=#143642;" parent="1" vertex="1">
          <mxGeometry x="-4360" y="-1760" width="20" height="20" as="geometry" />
        </mxCell>
        <mxCell id="FSDtG3Oiy2RMbPVVw-SS-74" value="5" style="rounded=0;whiteSpace=wrap;html=1;strokeWidth=0.5;labelBackgroundColor=none;fillColor=#f8cecc;strokeColor=#b85450;" parent="1" vertex="1">
          <mxGeometry x="-4440" y="-1760" width="20" height="20" as="geometry" />
        </mxCell>
        <mxCell id="FSDtG3Oiy2RMbPVVw-SS-75" value="6" style="rounded=0;whiteSpace=wrap;html=1;strokeWidth=0.5;labelBackgroundColor=none;fillColor=#f8cecc;strokeColor=#b85450;" parent="1" vertex="1">
          <mxGeometry x="-4420" y="-1760" width="20" height="20" as="geometry" />
        </mxCell>
        <mxCell id="FSDtG3Oiy2RMbPVVw-SS-76" value="7" style="rounded=0;whiteSpace=wrap;html=1;strokeWidth=0.5;labelBackgroundColor=none;fillColor=#f8cecc;strokeColor=#b85450;" parent="1" vertex="1">
          <mxGeometry x="-4400" y="-1760" width="20" height="20" as="geometry" />
        </mxCell>
        <mxCell id="FSDtG3Oiy2RMbPVVw-SS-77" value="8" style="rounded=0;whiteSpace=wrap;html=1;strokeWidth=0.5;labelBackgroundColor=none;fillColor=#f8cecc;strokeColor=#b85450;" parent="1" vertex="1">
          <mxGeometry x="-4380" y="-1760" width="20" height="20" as="geometry" />
        </mxCell>
        <mxCell id="FSDtG3Oiy2RMbPVVw-SS-78" value="4" style="rounded=0;whiteSpace=wrap;html=1;strokeWidth=0.5;labelBackgroundColor=none;fillColor=#f8cecc;strokeColor=#b85450;" parent="1" vertex="1">
          <mxGeometry x="-4460" y="-1760" width="20" height="20" as="geometry" />
        </mxCell>
        <mxCell id="FSDtG3Oiy2RMbPVVw-SS-79" value="第2趟&amp;nbsp; 比较6次&amp;nbsp; 交换1次" style="text;html=1;align=center;verticalAlign=middle;resizable=0;points=[];autosize=1;strokeColor=none;fillColor=none;fontColor=#143642;fontSize=12;" parent="1" vertex="1">
          <mxGeometry x="-4650" y="-1984" width="150" height="30" as="geometry" />
        </mxCell>
        <mxCell id="FSDtG3Oiy2RMbPVVw-SS-80" value="第3趟&amp;nbsp; 比较5次&amp;nbsp; 交换1次" style="text;html=1;align=center;verticalAlign=middle;resizable=0;points=[];autosize=1;strokeColor=none;fillColor=none;fontColor=#143642;fontSize=12;" parent="1" vertex="1">
          <mxGeometry x="-4650" y="-1945" width="150" height="30" as="geometry" />
        </mxCell>
        <mxCell id="FSDtG3Oiy2RMbPVVw-SS-81" value="第4趟&amp;nbsp; 比较4次&amp;nbsp; 交换1次" style="text;html=1;align=center;verticalAlign=middle;resizable=0;points=[];autosize=1;strokeColor=none;fillColor=none;fontColor=#143642;fontSize=12;" parent="1" vertex="1">
          <mxGeometry x="-4650" y="-1905" width="150" height="30" as="geometry" />
        </mxCell>
        <mxCell id="FSDtG3Oiy2RMbPVVw-SS-82" value="第5趟&amp;nbsp; 比较3次&amp;nbsp; 交换0次" style="text;html=1;align=center;verticalAlign=middle;resizable=0;points=[];autosize=1;strokeColor=none;fillColor=none;fontColor=#143642;fontSize=12;" parent="1" vertex="1">
          <mxGeometry x="-4650" y="-1864" width="150" height="30" as="geometry" />
        </mxCell>
        <mxCell id="FSDtG3Oiy2RMbPVVw-SS-83" value="第6趟&amp;nbsp; 比较2次&amp;nbsp; 交换0次" style="text;html=1;align=center;verticalAlign=middle;resizable=0;points=[];autosize=1;strokeColor=none;fillColor=none;fontColor=#143642;fontSize=12;" parent="1" vertex="1">
          <mxGeometry x="-4650" y="-1823" width="150" height="30" as="geometry" />
        </mxCell>
        <mxCell id="FSDtG3Oiy2RMbPVVw-SS-84" value="第7趟&amp;nbsp; 比较1次&amp;nbsp; 交换0次" style="text;html=1;align=center;verticalAlign=middle;resizable=0;points=[];autosize=1;strokeColor=none;fillColor=none;fontColor=#143642;fontSize=12;" parent="1" vertex="1">
          <mxGeometry x="-4649" y="-1782" width="150" height="30" as="geometry" />
        </mxCell>
        <mxCell id="PHZYu98MbgSkmlWvgTVJ-1" value="5" style="rounded=0;whiteSpace=wrap;html=1;strokeWidth=0.5;labelBackgroundColor=none;fillColor=#FAE5C7;strokeColor=#0F8B8D;fontColor=#143642;" parent="1" vertex="1">
          <mxGeometry x="-4500" y="-1600" width="20" height="20" as="geometry" />
        </mxCell>
        <mxCell id="PHZYu98MbgSkmlWvgTVJ-2" value="2" style="rounded=0;whiteSpace=wrap;html=1;strokeWidth=0.5;labelBackgroundColor=none;fillColor=#FAE5C7;strokeColor=#0F8B8D;fontColor=#143642;" parent="1" vertex="1">
          <mxGeometry x="-4480" y="-1600" width="20" height="20" as="geometry" />
        </mxCell>
        <mxCell id="PHZYu98MbgSkmlWvgTVJ-3" value="10" style="rounded=0;whiteSpace=wrap;html=1;strokeWidth=0.5;labelBackgroundColor=none;fillColor=#FAE5C7;strokeColor=#0F8B8D;fontColor=#143642;" parent="1" vertex="1">
          <mxGeometry x="-4460" y="-1600" width="20" height="20" as="geometry" />
        </mxCell>
        <mxCell id="PHZYu98MbgSkmlWvgTVJ-4" value="7" style="rounded=0;whiteSpace=wrap;html=1;strokeWidth=0.5;labelBackgroundColor=none;fillColor=#FAE5C7;strokeColor=#0F8B8D;fontColor=#143642;" parent="1" vertex="1">
          <mxGeometry x="-4440" y="-1600" width="20" height="20" as="geometry" />
        </mxCell>
        <mxCell id="PHZYu98MbgSkmlWvgTVJ-5" value="6" style="rounded=0;whiteSpace=wrap;html=1;strokeWidth=0.5;labelBackgroundColor=none;fillColor=#FAE5C7;strokeColor=#0F8B8D;fontColor=#143642;" parent="1" vertex="1">
          <mxGeometry x="-4420" y="-1600" width="20" height="20" as="geometry" />
        </mxCell>
        <mxCell id="PHZYu98MbgSkmlWvgTVJ-6" value="3" style="rounded=0;whiteSpace=wrap;html=1;strokeWidth=0.5;labelBackgroundColor=none;fillColor=#FAE5C7;strokeColor=#0F8B8D;fontColor=#143642;" parent="1" vertex="1">
          <mxGeometry x="-4400" y="-1600" width="20" height="20" as="geometry" />
        </mxCell>
        <mxCell id="PHZYu98MbgSkmlWvgTVJ-7" value="8" style="rounded=0;whiteSpace=wrap;html=1;strokeWidth=0.5;labelBackgroundColor=none;fillColor=#FAE5C7;strokeColor=#0F8B8D;fontColor=#143642;" parent="1" vertex="1">
          <mxGeometry x="-4380" y="-1600" width="20" height="20" as="geometry" />
        </mxCell>
        <mxCell id="PHZYu98MbgSkmlWvgTVJ-8" value="4" style="rounded=0;whiteSpace=wrap;html=1;strokeWidth=0.5;labelBackgroundColor=none;fillColor=#FAE5C7;strokeColor=#0F8B8D;fontColor=#143642;" parent="1" vertex="1">
          <mxGeometry x="-4360" y="-1600" width="20" height="20" as="geometry" />
        </mxCell>
        <mxCell id="PHZYu98MbgSkmlWvgTVJ-10" value="第1趟&amp;nbsp; 比较1次&amp;nbsp; 交换1次" style="text;html=1;align=center;verticalAlign=middle;resizable=0;points=[];autosize=1;strokeColor=none;fillColor=none;fontColor=#143642;fontSize=12;" parent="1" vertex="1">
          <mxGeometry x="-4648" y="-1582" width="147" height="26" as="geometry" />
        </mxCell>
        <mxCell id="PHZYu98MbgSkmlWvgTVJ-11" value="2" style="rounded=0;whiteSpace=wrap;html=1;strokeWidth=0.5;labelBackgroundColor=none;fillColor=#f8cecc;strokeColor=#b85450;" parent="1" vertex="1">
          <mxGeometry x="-4500" y="-1560" width="20" height="20" as="geometry" />
        </mxCell>
        <mxCell id="PHZYu98MbgSkmlWvgTVJ-12" value="5" style="rounded=0;whiteSpace=wrap;html=1;strokeWidth=0.5;labelBackgroundColor=none;fillColor=#f8cecc;strokeColor=#b85450;" parent="1" vertex="1">
          <mxGeometry x="-4480" y="-1560" width="20" height="20" as="geometry" />
        </mxCell>
        <mxCell id="PHZYu98MbgSkmlWvgTVJ-13" value="10" style="rounded=0;whiteSpace=wrap;html=1;strokeWidth=0.5;labelBackgroundColor=none;fillColor=#FAE5C7;strokeColor=#0F8B8D;fontColor=#143642;" parent="1" vertex="1">
          <mxGeometry x="-4460" y="-1560" width="20" height="20" as="geometry" />
        </mxCell>
        <mxCell id="PHZYu98MbgSkmlWvgTVJ-14" value="7" style="rounded=0;whiteSpace=wrap;html=1;strokeWidth=0.5;labelBackgroundColor=none;fillColor=#FAE5C7;strokeColor=#0F8B8D;fontColor=#143642;" parent="1" vertex="1">
          <mxGeometry x="-4440" y="-1560" width="20" height="20" as="geometry" />
        </mxCell>
        <mxCell id="PHZYu98MbgSkmlWvgTVJ-15" value="6" style="rounded=0;whiteSpace=wrap;html=1;strokeWidth=0.5;labelBackgroundColor=none;fillColor=#FAE5C7;strokeColor=#0F8B8D;fontColor=#143642;" parent="1" vertex="1">
          <mxGeometry x="-4420" y="-1560" width="20" height="20" as="geometry" />
        </mxCell>
        <mxCell id="PHZYu98MbgSkmlWvgTVJ-16" value="3" style="rounded=0;whiteSpace=wrap;html=1;strokeWidth=0.5;labelBackgroundColor=none;fillColor=#FAE5C7;strokeColor=#0F8B8D;fontColor=#143642;" parent="1" vertex="1">
          <mxGeometry x="-4400" y="-1560" width="20" height="20" as="geometry" />
        </mxCell>
        <mxCell id="PHZYu98MbgSkmlWvgTVJ-17" value="8" style="rounded=0;whiteSpace=wrap;html=1;strokeWidth=0.5;labelBackgroundColor=none;fillColor=#FAE5C7;strokeColor=#0F8B8D;fontColor=#143642;" parent="1" vertex="1">
          <mxGeometry x="-4380" y="-1560" width="20" height="20" as="geometry" />
        </mxCell>
        <mxCell id="PHZYu98MbgSkmlWvgTVJ-18" value="4" style="rounded=0;whiteSpace=wrap;html=1;strokeWidth=0.5;labelBackgroundColor=none;fillColor=#FAE5C7;strokeColor=#0F8B8D;fontColor=#143642;" parent="1" vertex="1">
          <mxGeometry x="-4360" y="-1560" width="20" height="20" as="geometry" />
        </mxCell>
        <mxCell id="PHZYu98MbgSkmlWvgTVJ-19" value="第2趟&amp;nbsp; 比较1次&amp;nbsp; 交换0次" style="text;html=1;align=center;verticalAlign=middle;resizable=0;points=[];autosize=1;strokeColor=none;fillColor=none;fontColor=#143642;fontSize=12;" parent="1" vertex="1">
          <mxGeometry x="-4648" y="-1542" width="147" height="26" as="geometry" />
        </mxCell>
        <mxCell id="PHZYu98MbgSkmlWvgTVJ-20" value="" style="endArrow=none;startArrow=classic;html=1;rounded=0;strokeColor=#A8201A;fontColor=#143642;fillColor=#FAE5C7;endSize=3;startSize=3;endFill=0;" parent="1" edge="1">
          <mxGeometry width="50" height="50" relative="1" as="geometry">
            <mxPoint x="-4500" y="-1570" as="sourcePoint" />
            <mxPoint x="-4470" y="-1570" as="targetPoint" />
          </mxGeometry>
        </mxCell>
        <mxCell id="PHZYu98MbgSkmlWvgTVJ-21" value="2" style="rounded=0;whiteSpace=wrap;html=1;strokeWidth=0.5;labelBackgroundColor=none;fillColor=#f8cecc;strokeColor=#b85450;" parent="1" vertex="1">
          <mxGeometry x="-4500" y="-1520" width="20" height="20" as="geometry" />
        </mxCell>
        <mxCell id="PHZYu98MbgSkmlWvgTVJ-22" value="5" style="rounded=0;whiteSpace=wrap;html=1;strokeWidth=0.5;labelBackgroundColor=none;fillColor=#f8cecc;strokeColor=#b85450;" parent="1" vertex="1">
          <mxGeometry x="-4480" y="-1520" width="20" height="20" as="geometry" />
        </mxCell>
        <mxCell id="PHZYu98MbgSkmlWvgTVJ-23" value="10" style="rounded=0;whiteSpace=wrap;html=1;strokeWidth=0.5;labelBackgroundColor=none;fillColor=#f8cecc;strokeColor=#b85450;" parent="1" vertex="1">
          <mxGeometry x="-4460" y="-1520" width="20" height="20" as="geometry" />
        </mxCell>
        <mxCell id="PHZYu98MbgSkmlWvgTVJ-24" value="7" style="rounded=0;whiteSpace=wrap;html=1;strokeWidth=0.5;labelBackgroundColor=none;fillColor=#FAE5C7;strokeColor=#0F8B8D;fontColor=#143642;" parent="1" vertex="1">
          <mxGeometry x="-4440" y="-1520" width="20" height="20" as="geometry" />
        </mxCell>
        <mxCell id="PHZYu98MbgSkmlWvgTVJ-25" value="6" style="rounded=0;whiteSpace=wrap;html=1;strokeWidth=0.5;labelBackgroundColor=none;fillColor=#FAE5C7;strokeColor=#0F8B8D;fontColor=#143642;" parent="1" vertex="1">
          <mxGeometry x="-4420" y="-1520" width="20" height="20" as="geometry" />
        </mxCell>
        <mxCell id="PHZYu98MbgSkmlWvgTVJ-26" value="3" style="rounded=0;whiteSpace=wrap;html=1;strokeWidth=0.5;labelBackgroundColor=none;fillColor=#FAE5C7;strokeColor=#0F8B8D;fontColor=#143642;" parent="1" vertex="1">
          <mxGeometry x="-4400" y="-1520" width="20" height="20" as="geometry" />
        </mxCell>
        <mxCell id="PHZYu98MbgSkmlWvgTVJ-27" value="8" style="rounded=0;whiteSpace=wrap;html=1;strokeWidth=0.5;labelBackgroundColor=none;fillColor=#FAE5C7;strokeColor=#0F8B8D;fontColor=#143642;" parent="1" vertex="1">
          <mxGeometry x="-4380" y="-1520" width="20" height="20" as="geometry" />
        </mxCell>
        <mxCell id="PHZYu98MbgSkmlWvgTVJ-28" value="4" style="rounded=0;whiteSpace=wrap;html=1;strokeWidth=0.5;labelBackgroundColor=none;fillColor=#FAE5C7;strokeColor=#0F8B8D;fontColor=#143642;" parent="1" vertex="1">
          <mxGeometry x="-4360" y="-1520" width="20" height="20" as="geometry" />
        </mxCell>
        <mxCell id="PHZYu98MbgSkmlWvgTVJ-29" value="第3趟&amp;nbsp; 比较2次&amp;nbsp; 交换1次" style="text;html=1;align=center;verticalAlign=middle;resizable=0;points=[];autosize=1;strokeColor=none;fillColor=none;fontColor=#143642;fontSize=12;" parent="1" vertex="1">
          <mxGeometry x="-4648" y="-1502" width="147" height="26" as="geometry" />
        </mxCell>
        <mxCell id="PHZYu98MbgSkmlWvgTVJ-31" value="2" style="rounded=0;whiteSpace=wrap;html=1;strokeWidth=0.5;labelBackgroundColor=none;fillColor=#f8cecc;strokeColor=#b85450;" parent="1" vertex="1">
          <mxGeometry x="-4500" y="-1480" width="20" height="20" as="geometry" />
        </mxCell>
        <mxCell id="PHZYu98MbgSkmlWvgTVJ-32" value="5" style="rounded=0;whiteSpace=wrap;html=1;strokeWidth=0.5;labelBackgroundColor=none;fillColor=#f8cecc;strokeColor=#b85450;" parent="1" vertex="1">
          <mxGeometry x="-4480" y="-1480" width="20" height="20" as="geometry" />
        </mxCell>
        <mxCell id="PHZYu98MbgSkmlWvgTVJ-33" value="7" style="rounded=0;whiteSpace=wrap;html=1;strokeWidth=0.5;labelBackgroundColor=none;fillColor=#f8cecc;strokeColor=#b85450;" parent="1" vertex="1">
          <mxGeometry x="-4460" y="-1480" width="20" height="20" as="geometry" />
        </mxCell>
        <mxCell id="PHZYu98MbgSkmlWvgTVJ-34" value="10" style="rounded=0;whiteSpace=wrap;html=1;strokeWidth=0.5;labelBackgroundColor=none;fillColor=#f8cecc;strokeColor=#b85450;" parent="1" vertex="1">
          <mxGeometry x="-4440" y="-1480" width="20" height="20" as="geometry" />
        </mxCell>
        <mxCell id="PHZYu98MbgSkmlWvgTVJ-35" value="6" style="rounded=0;whiteSpace=wrap;html=1;strokeWidth=0.5;labelBackgroundColor=none;fillColor=#FAE5C7;strokeColor=#0F8B8D;fontColor=#143642;" parent="1" vertex="1">
          <mxGeometry x="-4420" y="-1480" width="20" height="20" as="geometry" />
        </mxCell>
        <mxCell id="PHZYu98MbgSkmlWvgTVJ-36" value="3" style="rounded=0;whiteSpace=wrap;html=1;strokeWidth=0.5;labelBackgroundColor=none;fillColor=#FAE5C7;strokeColor=#0F8B8D;fontColor=#143642;" parent="1" vertex="1">
          <mxGeometry x="-4400" y="-1480" width="20" height="20" as="geometry" />
        </mxCell>
        <mxCell id="PHZYu98MbgSkmlWvgTVJ-37" value="8" style="rounded=0;whiteSpace=wrap;html=1;strokeWidth=0.5;labelBackgroundColor=none;fillColor=#FAE5C7;strokeColor=#0F8B8D;fontColor=#143642;" parent="1" vertex="1">
          <mxGeometry x="-4380" y="-1480" width="20" height="20" as="geometry" />
        </mxCell>
        <mxCell id="PHZYu98MbgSkmlWvgTVJ-38" value="4" style="rounded=0;whiteSpace=wrap;html=1;strokeWidth=0.5;labelBackgroundColor=none;fillColor=#FAE5C7;strokeColor=#0F8B8D;fontColor=#143642;" parent="1" vertex="1">
          <mxGeometry x="-4360" y="-1480" width="20" height="20" as="geometry" />
        </mxCell>
        <mxCell id="PHZYu98MbgSkmlWvgTVJ-39" value="第4趟&amp;nbsp; 比较3次&amp;nbsp; 交换2次" style="text;html=1;align=center;verticalAlign=middle;resizable=0;points=[];autosize=1;strokeColor=none;fillColor=none;fontColor=#143642;fontSize=12;" parent="1" vertex="1">
          <mxGeometry x="-4648" y="-1462" width="147" height="26" as="geometry" />
        </mxCell>
        <mxCell id="PHZYu98MbgSkmlWvgTVJ-40" value="" style="endArrow=none;startArrow=classic;html=1;rounded=0;strokeColor=#A8201A;fontColor=#143642;fillColor=#FAE5C7;endSize=3;startSize=3;endFill=0;" parent="1" edge="1">
          <mxGeometry width="50" height="50" relative="1" as="geometry">
            <mxPoint x="-4460" y="-1490" as="sourcePoint" />
            <mxPoint x="-4430" y="-1490" as="targetPoint" />
          </mxGeometry>
        </mxCell>
        <mxCell id="PHZYu98MbgSkmlWvgTVJ-41" value="2" style="rounded=0;whiteSpace=wrap;html=1;strokeWidth=0.5;labelBackgroundColor=none;fillColor=#f8cecc;strokeColor=#b85450;" parent="1" vertex="1">
          <mxGeometry x="-4500" y="-1440" width="20" height="20" as="geometry" />
        </mxCell>
        <mxCell id="PHZYu98MbgSkmlWvgTVJ-42" value="5" style="rounded=0;whiteSpace=wrap;html=1;strokeWidth=0.5;labelBackgroundColor=none;fillColor=#f8cecc;strokeColor=#b85450;" parent="1" vertex="1">
          <mxGeometry x="-4480" y="-1440" width="20" height="20" as="geometry" />
        </mxCell>
        <mxCell id="PHZYu98MbgSkmlWvgTVJ-43" value="6" style="rounded=0;whiteSpace=wrap;html=1;strokeWidth=0.5;labelBackgroundColor=none;fillColor=#f8cecc;strokeColor=#b85450;" parent="1" vertex="1">
          <mxGeometry x="-4460" y="-1440" width="20" height="20" as="geometry" />
        </mxCell>
        <mxCell id="PHZYu98MbgSkmlWvgTVJ-44" value="7" style="rounded=0;whiteSpace=wrap;html=1;strokeWidth=0.5;labelBackgroundColor=none;fillColor=#f8cecc;strokeColor=#b85450;" parent="1" vertex="1">
          <mxGeometry x="-4440" y="-1440" width="20" height="20" as="geometry" />
        </mxCell>
        <mxCell id="PHZYu98MbgSkmlWvgTVJ-45" value="10" style="rounded=0;whiteSpace=wrap;html=1;strokeWidth=0.5;labelBackgroundColor=none;fillColor=#f8cecc;strokeColor=#b85450;" parent="1" vertex="1">
          <mxGeometry x="-4420" y="-1440" width="20" height="20" as="geometry" />
        </mxCell>
        <mxCell id="PHZYu98MbgSkmlWvgTVJ-46" value="3" style="rounded=0;whiteSpace=wrap;html=1;strokeWidth=0.5;labelBackgroundColor=none;fillColor=#FAE5C7;strokeColor=#0F8B8D;fontColor=#143642;" parent="1" vertex="1">
          <mxGeometry x="-4400" y="-1440" width="20" height="20" as="geometry" />
        </mxCell>
        <mxCell id="PHZYu98MbgSkmlWvgTVJ-47" value="8" style="rounded=0;whiteSpace=wrap;html=1;strokeWidth=0.5;labelBackgroundColor=none;fillColor=#FAE5C7;strokeColor=#0F8B8D;fontColor=#143642;" parent="1" vertex="1">
          <mxGeometry x="-4380" y="-1440" width="20" height="20" as="geometry" />
        </mxCell>
        <mxCell id="PHZYu98MbgSkmlWvgTVJ-48" value="4" style="rounded=0;whiteSpace=wrap;html=1;strokeWidth=0.5;labelBackgroundColor=none;fillColor=#FAE5C7;strokeColor=#0F8B8D;fontColor=#143642;" parent="1" vertex="1">
          <mxGeometry x="-4360" y="-1440" width="20" height="20" as="geometry" />
        </mxCell>
        <mxCell id="PHZYu98MbgSkmlWvgTVJ-49" value="第5趟&amp;nbsp; 比较5次&amp;nbsp; 交换4次" style="text;html=1;align=center;verticalAlign=middle;resizable=0;points=[];autosize=1;strokeColor=none;fillColor=none;fontColor=#143642;fontSize=12;" parent="1" vertex="1">
          <mxGeometry x="-4648" y="-1421" width="147" height="26" as="geometry" />
        </mxCell>
        <mxCell id="PHZYu98MbgSkmlWvgTVJ-50" value="" style="endArrow=none;startArrow=classic;html=1;rounded=0;strokeColor=#A8201A;fontColor=#143642;fillColor=#FAE5C7;endSize=3;startSize=3;endFill=0;" parent="1" edge="1">
          <mxGeometry width="50" height="50" relative="1" as="geometry">
            <mxPoint x="-4460" y="-1450" as="sourcePoint" />
            <mxPoint x="-4410" y="-1450" as="targetPoint" />
          </mxGeometry>
        </mxCell>
        <mxCell id="PHZYu98MbgSkmlWvgTVJ-51" value="2" style="rounded=0;whiteSpace=wrap;html=1;strokeWidth=0.5;labelBackgroundColor=none;fillColor=#f8cecc;strokeColor=#b85450;" parent="1" vertex="1">
          <mxGeometry x="-4500" y="-1400" width="20" height="20" as="geometry" />
        </mxCell>
        <mxCell id="PHZYu98MbgSkmlWvgTVJ-52" value="5" style="rounded=0;whiteSpace=wrap;html=1;strokeWidth=0.5;labelBackgroundColor=none;fillColor=#f8cecc;strokeColor=#b85450;" parent="1" vertex="1">
          <mxGeometry x="-4460" y="-1400" width="20" height="20" as="geometry" />
        </mxCell>
        <mxCell id="PHZYu98MbgSkmlWvgTVJ-53" value="6" style="rounded=0;whiteSpace=wrap;html=1;strokeWidth=0.5;labelBackgroundColor=none;fillColor=#f8cecc;strokeColor=#b85450;" parent="1" vertex="1">
          <mxGeometry x="-4440" y="-1400" width="20" height="20" as="geometry" />
        </mxCell>
        <mxCell id="PHZYu98MbgSkmlWvgTVJ-54" value="7" style="rounded=0;whiteSpace=wrap;html=1;strokeWidth=0.5;labelBackgroundColor=none;fillColor=#f8cecc;strokeColor=#b85450;" parent="1" vertex="1">
          <mxGeometry x="-4420" y="-1400" width="20" height="20" as="geometry" />
        </mxCell>
        <mxCell id="PHZYu98MbgSkmlWvgTVJ-55" value="10" style="rounded=0;whiteSpace=wrap;html=1;strokeWidth=0.5;labelBackgroundColor=none;fillColor=#f8cecc;strokeColor=#b85450;" parent="1" vertex="1">
          <mxGeometry x="-4400" y="-1400" width="20" height="20" as="geometry" />
        </mxCell>
        <mxCell id="PHZYu98MbgSkmlWvgTVJ-56" value="3" style="rounded=0;whiteSpace=wrap;html=1;strokeWidth=0.5;labelBackgroundColor=none;fillColor=#f8cecc;strokeColor=#b85450;" parent="1" vertex="1">
          <mxGeometry x="-4480" y="-1400" width="20" height="20" as="geometry" />
        </mxCell>
        <mxCell id="PHZYu98MbgSkmlWvgTVJ-57" value="8" style="rounded=0;whiteSpace=wrap;html=1;strokeWidth=0.5;labelBackgroundColor=none;fillColor=#FAE5C7;strokeColor=#0F8B8D;fontColor=#143642;" parent="1" vertex="1">
          <mxGeometry x="-4380" y="-1400" width="20" height="20" as="geometry" />
        </mxCell>
        <mxCell id="PHZYu98MbgSkmlWvgTVJ-58" value="4" style="rounded=0;whiteSpace=wrap;html=1;strokeWidth=0.5;labelBackgroundColor=none;fillColor=#FAE5C7;strokeColor=#0F8B8D;fontColor=#143642;" parent="1" vertex="1">
          <mxGeometry x="-4360" y="-1400" width="20" height="20" as="geometry" />
        </mxCell>
        <mxCell id="PHZYu98MbgSkmlWvgTVJ-59" value="" style="endArrow=none;startArrow=classic;html=1;rounded=0;strokeColor=#A8201A;fontColor=#143642;fillColor=#FAE5C7;endSize=3;startSize=3;endFill=0;" parent="1" edge="1">
          <mxGeometry width="50" height="50" relative="1" as="geometry">
            <mxPoint x="-4480" y="-1410" as="sourcePoint" />
            <mxPoint x="-4390" y="-1410" as="targetPoint" />
          </mxGeometry>
        </mxCell>
        <mxCell id="PHZYu98MbgSkmlWvgTVJ-68" value="" style="endArrow=none;startArrow=classic;html=1;rounded=0;strokeColor=#A8201A;fontColor=#143642;fillColor=#FAE5C7;endSize=3;startSize=3;endFill=0;" parent="1" edge="1">
          <mxGeometry width="50" height="50" relative="1" as="geometry">
            <mxPoint x="-4460" y="-1330" as="sourcePoint" />
            <mxPoint x="-4350" y="-1330" as="targetPoint" />
          </mxGeometry>
        </mxCell>
        <mxCell id="PHZYu98MbgSkmlWvgTVJ-70" value="2" style="rounded=0;whiteSpace=wrap;html=1;strokeWidth=0.5;labelBackgroundColor=none;fillColor=#f8cecc;strokeColor=#b85450;" parent="1" vertex="1">
          <mxGeometry x="-4500" y="-1360" width="20" height="20" as="geometry" />
        </mxCell>
        <mxCell id="PHZYu98MbgSkmlWvgTVJ-71" value="5" style="rounded=0;whiteSpace=wrap;html=1;strokeWidth=0.5;labelBackgroundColor=none;fillColor=#f8cecc;strokeColor=#b85450;" parent="1" vertex="1">
          <mxGeometry x="-4460" y="-1360" width="20" height="20" as="geometry" />
        </mxCell>
        <mxCell id="PHZYu98MbgSkmlWvgTVJ-72" value="6" style="rounded=0;whiteSpace=wrap;html=1;strokeWidth=0.5;labelBackgroundColor=none;fillColor=#f8cecc;strokeColor=#b85450;" parent="1" vertex="1">
          <mxGeometry x="-4440" y="-1360" width="20" height="20" as="geometry" />
        </mxCell>
        <mxCell id="PHZYu98MbgSkmlWvgTVJ-73" value="7" style="rounded=0;whiteSpace=wrap;html=1;strokeWidth=0.5;labelBackgroundColor=none;fillColor=#f8cecc;strokeColor=#b85450;" parent="1" vertex="1">
          <mxGeometry x="-4420" y="-1360" width="20" height="20" as="geometry" />
        </mxCell>
        <mxCell id="PHZYu98MbgSkmlWvgTVJ-74" value="8" style="rounded=0;whiteSpace=wrap;html=1;strokeWidth=0.5;labelBackgroundColor=none;fillColor=#f8cecc;strokeColor=#b85450;" parent="1" vertex="1">
          <mxGeometry x="-4400" y="-1360" width="20" height="20" as="geometry" />
        </mxCell>
        <mxCell id="PHZYu98MbgSkmlWvgTVJ-75" value="3" style="rounded=0;whiteSpace=wrap;html=1;strokeWidth=0.5;labelBackgroundColor=none;fillColor=#f8cecc;strokeColor=#b85450;" parent="1" vertex="1">
          <mxGeometry x="-4480" y="-1360" width="20" height="20" as="geometry" />
        </mxCell>
        <mxCell id="PHZYu98MbgSkmlWvgTVJ-76" value="10" style="rounded=0;whiteSpace=wrap;html=1;strokeWidth=0.5;labelBackgroundColor=none;fillColor=#f8cecc;strokeColor=#b85450;" parent="1" vertex="1">
          <mxGeometry x="-4380" y="-1360" width="20" height="20" as="geometry" />
        </mxCell>
        <mxCell id="PHZYu98MbgSkmlWvgTVJ-77" value="4" style="rounded=0;whiteSpace=wrap;html=1;strokeWidth=0.5;labelBackgroundColor=none;fillColor=#FAE5C7;strokeColor=#0F8B8D;fontColor=#143642;" parent="1" vertex="1">
          <mxGeometry x="-4360" y="-1360" width="20" height="20" as="geometry" />
        </mxCell>
        <mxCell id="PHZYu98MbgSkmlWvgTVJ-78" value="" style="endArrow=none;startArrow=classic;html=1;rounded=0;strokeColor=#A8201A;fontColor=#143642;fillColor=#FAE5C7;endSize=3;startSize=3;endFill=0;" parent="1" edge="1">
          <mxGeometry width="50" height="50" relative="1" as="geometry">
            <mxPoint x="-4400" y="-1369" as="sourcePoint" />
            <mxPoint x="-4367" y="-1369" as="targetPoint" />
          </mxGeometry>
        </mxCell>
        <mxCell id="PHZYu98MbgSkmlWvgTVJ-79" value="第6趟&amp;nbsp; 比较2次&amp;nbsp; 交换1次" style="text;html=1;align=center;verticalAlign=middle;resizable=0;points=[];autosize=1;strokeColor=none;fillColor=none;fontColor=#143642;fontSize=12;" parent="1" vertex="1">
          <mxGeometry x="-4648" y="-1382" width="147" height="26" as="geometry" />
        </mxCell>
        <mxCell id="PHZYu98MbgSkmlWvgTVJ-80" value="2" style="rounded=0;whiteSpace=wrap;html=1;strokeWidth=0.5;labelBackgroundColor=none;fillColor=#f8cecc;strokeColor=#b85450;" parent="1" vertex="1">
          <mxGeometry x="-4500" y="-1320" width="20" height="20" as="geometry" />
        </mxCell>
        <mxCell id="PHZYu98MbgSkmlWvgTVJ-81" value="5" style="rounded=0;whiteSpace=wrap;html=1;strokeWidth=0.5;labelBackgroundColor=none;fillColor=#f8cecc;strokeColor=#b85450;" parent="1" vertex="1">
          <mxGeometry x="-4440" y="-1320" width="20" height="20" as="geometry" />
        </mxCell>
        <mxCell id="PHZYu98MbgSkmlWvgTVJ-82" value="6" style="rounded=0;whiteSpace=wrap;html=1;strokeWidth=0.5;labelBackgroundColor=none;fillColor=#f8cecc;strokeColor=#b85450;" parent="1" vertex="1">
          <mxGeometry x="-4420" y="-1320" width="20" height="20" as="geometry" />
        </mxCell>
        <mxCell id="PHZYu98MbgSkmlWvgTVJ-83" value="7" style="rounded=0;whiteSpace=wrap;html=1;strokeWidth=0.5;labelBackgroundColor=none;fillColor=#f8cecc;strokeColor=#b85450;" parent="1" vertex="1">
          <mxGeometry x="-4400" y="-1320" width="20" height="20" as="geometry" />
        </mxCell>
        <mxCell id="PHZYu98MbgSkmlWvgTVJ-84" value="8" style="rounded=0;whiteSpace=wrap;html=1;strokeWidth=0.5;labelBackgroundColor=none;fillColor=#f8cecc;strokeColor=#b85450;" parent="1" vertex="1">
          <mxGeometry x="-4380" y="-1320" width="20" height="20" as="geometry" />
        </mxCell>
        <mxCell id="PHZYu98MbgSkmlWvgTVJ-85" value="3" style="rounded=0;whiteSpace=wrap;html=1;strokeWidth=0.5;labelBackgroundColor=none;fillColor=#f8cecc;strokeColor=#b85450;" parent="1" vertex="1">
          <mxGeometry x="-4480" y="-1320" width="20" height="20" as="geometry" />
        </mxCell>
        <mxCell id="PHZYu98MbgSkmlWvgTVJ-86" value="10" style="rounded=0;whiteSpace=wrap;html=1;strokeWidth=0.5;labelBackgroundColor=none;fillColor=#f8cecc;strokeColor=#b85450;" parent="1" vertex="1">
          <mxGeometry x="-4360" y="-1320" width="20" height="20" as="geometry" />
        </mxCell>
        <mxCell id="PHZYu98MbgSkmlWvgTVJ-87" value="4" style="rounded=0;whiteSpace=wrap;html=1;strokeWidth=0.5;labelBackgroundColor=none;fillColor=#f8cecc;strokeColor=#b85450;" parent="1" vertex="1">
          <mxGeometry x="-4460" y="-1320" width="20" height="20" as="geometry" />
        </mxCell>
        <mxCell id="PHZYu98MbgSkmlWvgTVJ-88" value="第7趟&amp;nbsp; 比较6次&amp;nbsp; 交换5次" style="text;html=1;align=center;verticalAlign=middle;resizable=0;points=[];autosize=1;strokeColor=none;fillColor=none;fontColor=#143642;fontSize=12;" parent="1" vertex="1">
          <mxGeometry x="-4648" y="-1342" width="147" height="26" as="geometry" />
        </mxCell>
        <mxCell id="PHZYu98MbgSkmlWvgTVJ-89" value="5" style="rounded=0;whiteSpace=wrap;html=1;strokeWidth=0.5;labelBackgroundColor=none;fillColor=#FAE5C7;strokeColor=#0F8B8D;fontColor=#143642;" parent="1" vertex="1">
          <mxGeometry x="-4500" y="-1200" width="20" height="20" as="geometry" />
        </mxCell>
        <mxCell id="PHZYu98MbgSkmlWvgTVJ-90" value="2" style="rounded=0;whiteSpace=wrap;html=1;strokeWidth=0.5;labelBackgroundColor=none;fillColor=#FAE5C7;strokeColor=#0F8B8D;fontColor=#143642;" parent="1" vertex="1">
          <mxGeometry x="-4480" y="-1200" width="20" height="20" as="geometry" />
        </mxCell>
        <mxCell id="PHZYu98MbgSkmlWvgTVJ-91" value="10" style="rounded=0;whiteSpace=wrap;html=1;strokeWidth=0.5;labelBackgroundColor=none;fillColor=#FAE5C7;strokeColor=#0F8B8D;fontColor=#143642;" parent="1" vertex="1">
          <mxGeometry x="-4460" y="-1200" width="20" height="20" as="geometry" />
        </mxCell>
        <mxCell id="PHZYu98MbgSkmlWvgTVJ-92" value="7" style="rounded=0;whiteSpace=wrap;html=1;strokeWidth=0.5;labelBackgroundColor=none;fillColor=#FAE5C7;strokeColor=#0F8B8D;fontColor=#143642;" parent="1" vertex="1">
          <mxGeometry x="-4440" y="-1200" width="20" height="20" as="geometry" />
        </mxCell>
        <mxCell id="PHZYu98MbgSkmlWvgTVJ-93" value="6" style="rounded=0;whiteSpace=wrap;html=1;strokeWidth=0.5;labelBackgroundColor=none;fillColor=#FAE5C7;strokeColor=#0F8B8D;fontColor=#143642;" parent="1" vertex="1">
          <mxGeometry x="-4420" y="-1200" width="20" height="20" as="geometry" />
        </mxCell>
        <mxCell id="PHZYu98MbgSkmlWvgTVJ-94" value="3" style="rounded=0;whiteSpace=wrap;html=1;strokeWidth=0.5;labelBackgroundColor=none;fillColor=#FAE5C7;strokeColor=#0F8B8D;fontColor=#143642;" parent="1" vertex="1">
          <mxGeometry x="-4400" y="-1200" width="20" height="20" as="geometry" />
        </mxCell>
        <mxCell id="PHZYu98MbgSkmlWvgTVJ-95" value="8" style="rounded=0;whiteSpace=wrap;html=1;strokeWidth=0.5;labelBackgroundColor=none;fillColor=#FAE5C7;strokeColor=#0F8B8D;fontColor=#143642;" parent="1" vertex="1">
          <mxGeometry x="-4380" y="-1200" width="20" height="20" as="geometry" />
        </mxCell>
        <mxCell id="PHZYu98MbgSkmlWvgTVJ-96" value="4" style="rounded=0;whiteSpace=wrap;html=1;strokeWidth=0.5;labelBackgroundColor=none;fillColor=#FAE5C7;strokeColor=#0F8B8D;fontColor=#143642;" parent="1" vertex="1">
          <mxGeometry x="-4360" y="-1200" width="20" height="20" as="geometry" />
        </mxCell>
        <mxCell id="PHZYu98MbgSkmlWvgTVJ-97" value="h = 4&amp;nbsp; 第1个子数组&amp;nbsp; 第1趟&amp;nbsp; 比较1次&amp;nbsp; 交换0次" style="text;html=1;align=center;verticalAlign=middle;resizable=0;points=[];autosize=1;strokeColor=none;fillColor=none;fontColor=#143642;fontSize=12;" parent="1" vertex="1">
          <mxGeometry x="-4753" y="-1174" width="254" height="26" as="geometry" />
        </mxCell>
        <mxCell id="PHZYu98MbgSkmlWvgTVJ-99" value="5" style="rounded=0;whiteSpace=wrap;html=1;strokeWidth=0.5;labelBackgroundColor=none;fillColor=#FAE5C7;strokeColor=#0F8B8D;fontColor=#143642;" parent="1" vertex="1">
          <mxGeometry x="-4500" y="-1170" width="20" height="20" as="geometry" />
        </mxCell>
        <mxCell id="PHZYu98MbgSkmlWvgTVJ-100" value="6" style="rounded=0;whiteSpace=wrap;html=1;strokeWidth=0.5;labelBackgroundColor=none;fillColor=#FAE5C7;strokeColor=#0F8B8D;fontColor=#143642;" parent="1" vertex="1">
          <mxGeometry x="-4420" y="-1170" width="20" height="20" as="geometry" />
        </mxCell>
        <mxCell id="PHZYu98MbgSkmlWvgTVJ-101" value="2" style="rounded=0;whiteSpace=wrap;html=1;strokeWidth=0.5;labelBackgroundColor=none;fillColor=#FAE5C7;strokeColor=#0F8B8D;fontColor=#143642;" parent="1" vertex="1">
          <mxGeometry x="-4480" y="-1140" width="20" height="20" as="geometry" />
        </mxCell>
        <mxCell id="PHZYu98MbgSkmlWvgTVJ-102" value="3" style="rounded=0;whiteSpace=wrap;html=1;strokeWidth=0.5;labelBackgroundColor=none;fillColor=#FAE5C7;strokeColor=#0F8B8D;fontColor=#143642;" parent="1" vertex="1">
          <mxGeometry x="-4400" y="-1140" width="20" height="20" as="geometry" />
        </mxCell>
        <mxCell id="PHZYu98MbgSkmlWvgTVJ-103" value="10" style="rounded=0;whiteSpace=wrap;html=1;strokeWidth=0.5;labelBackgroundColor=none;fillColor=#FAE5C7;strokeColor=#0F8B8D;fontColor=#143642;" parent="1" vertex="1">
          <mxGeometry x="-4460" y="-1110" width="20" height="20" as="geometry" />
        </mxCell>
        <mxCell id="PHZYu98MbgSkmlWvgTVJ-104" value="8" style="rounded=0;whiteSpace=wrap;html=1;strokeWidth=0.5;labelBackgroundColor=none;fillColor=#FAE5C7;strokeColor=#0F8B8D;fontColor=#143642;" parent="1" vertex="1">
          <mxGeometry x="-4380" y="-1110" width="20" height="20" as="geometry" />
        </mxCell>
        <mxCell id="PHZYu98MbgSkmlWvgTVJ-105" value="7" style="rounded=0;whiteSpace=wrap;html=1;strokeWidth=0.5;labelBackgroundColor=none;fillColor=#FAE5C7;strokeColor=#0F8B8D;fontColor=#143642;" parent="1" vertex="1">
          <mxGeometry x="-4440" y="-1080" width="20" height="20" as="geometry" />
        </mxCell>
        <mxCell id="PHZYu98MbgSkmlWvgTVJ-106" value="4" style="rounded=0;whiteSpace=wrap;html=1;strokeWidth=0.5;labelBackgroundColor=none;fillColor=#FAE5C7;strokeColor=#0F8B8D;fontColor=#143642;" parent="1" vertex="1">
          <mxGeometry x="-4360" y="-1080" width="20" height="20" as="geometry" />
        </mxCell>
        <mxCell id="PHZYu98MbgSkmlWvgTVJ-107" value="" style="endArrow=classic;startArrow=classic;html=1;rounded=0;strokeColor=#A8201A;fontColor=#143642;fillColor=#FAE5C7;endSize=3;startSize=3;endFill=1;" parent="1" edge="1">
          <mxGeometry width="50" height="50" relative="1" as="geometry">
            <mxPoint x="-4430" y="-1100" as="sourcePoint" />
            <mxPoint x="-4390" y="-1100" as="targetPoint" />
          </mxGeometry>
        </mxCell>
        <mxCell id="PHZYu98MbgSkmlWvgTVJ-108" value="" style="endArrow=classic;startArrow=classic;html=1;rounded=0;strokeColor=#A8201A;fontColor=#143642;fillColor=#FAE5C7;endSize=3;startSize=3;endFill=1;" parent="1" edge="1">
          <mxGeometry width="50" height="50" relative="1" as="geometry">
            <mxPoint x="-4410" y="-1070" as="sourcePoint" />
            <mxPoint x="-4370" y="-1070" as="targetPoint" />
          </mxGeometry>
        </mxCell>
        <mxCell id="PHZYu98MbgSkmlWvgTVJ-109" value="h = 4&amp;nbsp; 第2个子数组&amp;nbsp; 第1趟&amp;nbsp; 比较1次&amp;nbsp; 交换0次" style="text;html=1;align=center;verticalAlign=middle;resizable=0;points=[];autosize=1;strokeColor=none;fillColor=none;fontColor=#143642;fontSize=12;" parent="1" vertex="1">
          <mxGeometry x="-4753" y="-1143" width="254" height="26" as="geometry" />
        </mxCell>
        <mxCell id="PHZYu98MbgSkmlWvgTVJ-110" value="h = 4&amp;nbsp; 第3个子数组&amp;nbsp; 第1趟&amp;nbsp; 比较1次&amp;nbsp; 交换1次" style="text;html=1;align=center;verticalAlign=middle;resizable=0;points=[];autosize=1;strokeColor=none;fillColor=none;fontColor=#143642;fontSize=12;" parent="1" vertex="1">
          <mxGeometry x="-4753" y="-1114" width="254" height="26" as="geometry" />
        </mxCell>
        <mxCell id="PHZYu98MbgSkmlWvgTVJ-111" value="h = 4&amp;nbsp; 第4个子数组&amp;nbsp; 第1趟&amp;nbsp; 比较1次&amp;nbsp; 交换1次" style="text;html=1;align=center;verticalAlign=middle;resizable=0;points=[];autosize=1;strokeColor=none;fillColor=none;fontColor=#143642;fontSize=12;" parent="1" vertex="1">
          <mxGeometry x="-4753" y="-1085" width="254" height="26" as="geometry" />
        </mxCell>
        <mxCell id="PHZYu98MbgSkmlWvgTVJ-112" value="5" style="rounded=0;whiteSpace=wrap;html=1;strokeWidth=0.5;labelBackgroundColor=none;fillColor=#FAE5C7;strokeColor=#0F8B8D;fontColor=#143642;" parent="1" vertex="1">
          <mxGeometry x="-4500" y="-1050" width="20" height="20" as="geometry" />
        </mxCell>
        <mxCell id="PHZYu98MbgSkmlWvgTVJ-113" value="2" style="rounded=0;whiteSpace=wrap;html=1;strokeWidth=0.5;labelBackgroundColor=none;fillColor=#FAE5C7;strokeColor=#0F8B8D;fontColor=#143642;" parent="1" vertex="1">
          <mxGeometry x="-4480" y="-1050" width="20" height="20" as="geometry" />
        </mxCell>
        <mxCell id="PHZYu98MbgSkmlWvgTVJ-114" value="10" style="rounded=0;whiteSpace=wrap;html=1;strokeWidth=0.5;labelBackgroundColor=none;fillColor=#FAE5C7;strokeColor=#0F8B8D;fontColor=#143642;" parent="1" vertex="1">
          <mxGeometry x="-4380" y="-1050" width="20" height="20" as="geometry" />
        </mxCell>
        <mxCell id="PHZYu98MbgSkmlWvgTVJ-115" value="7" style="rounded=0;whiteSpace=wrap;html=1;strokeWidth=0.5;labelBackgroundColor=none;fillColor=#FAE5C7;strokeColor=#0F8B8D;fontColor=#143642;" parent="1" vertex="1">
          <mxGeometry x="-4360" y="-1050" width="20" height="20" as="geometry" />
        </mxCell>
        <mxCell id="PHZYu98MbgSkmlWvgTVJ-116" value="6" style="rounded=0;whiteSpace=wrap;html=1;strokeWidth=0.5;labelBackgroundColor=none;fillColor=#FAE5C7;strokeColor=#0F8B8D;fontColor=#143642;" parent="1" vertex="1">
          <mxGeometry x="-4420" y="-1050" width="20" height="20" as="geometry" />
        </mxCell>
        <mxCell id="PHZYu98MbgSkmlWvgTVJ-117" value="3" style="rounded=0;whiteSpace=wrap;html=1;strokeWidth=0.5;labelBackgroundColor=none;fillColor=#FAE5C7;strokeColor=#0F8B8D;fontColor=#143642;" parent="1" vertex="1">
          <mxGeometry x="-4400" y="-1050" width="20" height="20" as="geometry" />
        </mxCell>
        <mxCell id="PHZYu98MbgSkmlWvgTVJ-118" value="8" style="rounded=0;whiteSpace=wrap;html=1;strokeWidth=0.5;labelBackgroundColor=none;fillColor=#FAE5C7;strokeColor=#0F8B8D;fontColor=#143642;" parent="1" vertex="1">
          <mxGeometry x="-4460" y="-1050" width="20" height="20" as="geometry" />
        </mxCell>
        <mxCell id="PHZYu98MbgSkmlWvgTVJ-119" value="4" style="rounded=0;whiteSpace=wrap;html=1;strokeWidth=0.5;labelBackgroundColor=none;fillColor=#FAE5C7;strokeColor=#0F8B8D;fontColor=#143642;" parent="1" vertex="1">
          <mxGeometry x="-4440" y="-1050" width="20" height="20" as="geometry" />
        </mxCell>
        <mxCell id="PHZYu98MbgSkmlWvgTVJ-123" value="2" style="rounded=0;whiteSpace=wrap;html=1;strokeWidth=0.5;labelBackgroundColor=none;fillColor=#f8cecc;strokeColor=#b85450;" parent="1" vertex="1">
          <mxGeometry x="-4500" y="-1010" width="20" height="20" as="geometry" />
        </mxCell>
        <mxCell id="PHZYu98MbgSkmlWvgTVJ-124" value="5" style="rounded=0;whiteSpace=wrap;html=1;strokeWidth=0.5;labelBackgroundColor=none;fillColor=#f8cecc;strokeColor=#b85450;" parent="1" vertex="1">
          <mxGeometry x="-4480" y="-1010" width="20" height="20" as="geometry" />
        </mxCell>
        <mxCell id="PHZYu98MbgSkmlWvgTVJ-125" value="10" style="rounded=0;whiteSpace=wrap;html=1;strokeWidth=0.5;labelBackgroundColor=none;fillColor=#FAE5C7;strokeColor=#0F8B8D;fontColor=#143642;" parent="1" vertex="1">
          <mxGeometry x="-4380" y="-1010" width="20" height="20" as="geometry" />
        </mxCell>
        <mxCell id="PHZYu98MbgSkmlWvgTVJ-126" value="7" style="rounded=0;whiteSpace=wrap;html=1;strokeWidth=0.5;labelBackgroundColor=none;fillColor=#FAE5C7;strokeColor=#0F8B8D;fontColor=#143642;" parent="1" vertex="1">
          <mxGeometry x="-4360" y="-1010" width="20" height="20" as="geometry" />
        </mxCell>
        <mxCell id="PHZYu98MbgSkmlWvgTVJ-127" value="6" style="rounded=0;whiteSpace=wrap;html=1;strokeWidth=0.5;labelBackgroundColor=none;fillColor=#FAE5C7;strokeColor=#0F8B8D;fontColor=#143642;" parent="1" vertex="1">
          <mxGeometry x="-4420" y="-1010" width="20" height="20" as="geometry" />
        </mxCell>
        <mxCell id="PHZYu98MbgSkmlWvgTVJ-128" value="3" style="rounded=0;whiteSpace=wrap;html=1;strokeWidth=0.5;labelBackgroundColor=none;fillColor=#FAE5C7;strokeColor=#0F8B8D;fontColor=#143642;" parent="1" vertex="1">
          <mxGeometry x="-4400" y="-1010" width="20" height="20" as="geometry" />
        </mxCell>
        <mxCell id="PHZYu98MbgSkmlWvgTVJ-129" value="8" style="rounded=0;whiteSpace=wrap;html=1;strokeWidth=0.5;labelBackgroundColor=none;fillColor=#FAE5C7;strokeColor=#0F8B8D;fontColor=#143642;" parent="1" vertex="1">
          <mxGeometry x="-4460" y="-1010" width="20" height="20" as="geometry" />
        </mxCell>
        <mxCell id="PHZYu98MbgSkmlWvgTVJ-130" value="4" style="rounded=0;whiteSpace=wrap;html=1;strokeWidth=0.5;labelBackgroundColor=none;fillColor=#FAE5C7;strokeColor=#0F8B8D;fontColor=#143642;" parent="1" vertex="1">
          <mxGeometry x="-4440" y="-1010" width="20" height="20" as="geometry" />
        </mxCell>
        <mxCell id="PHZYu98MbgSkmlWvgTVJ-131" value="" style="endArrow=none;startArrow=classic;html=1;rounded=0;strokeColor=#A8201A;fontColor=#143642;fillColor=#FAE5C7;endSize=3;startSize=3;endFill=0;" parent="1" edge="1">
          <mxGeometry width="50" height="50" relative="1" as="geometry">
            <mxPoint x="-4500" y="-1020" as="sourcePoint" />
            <mxPoint x="-4470" y="-1020" as="targetPoint" />
          </mxGeometry>
        </mxCell>
        <mxCell id="PHZYu98MbgSkmlWvgTVJ-133" value="2" style="rounded=0;whiteSpace=wrap;html=1;strokeWidth=0.5;labelBackgroundColor=none;fillColor=#f8cecc;strokeColor=#b85450;" parent="1" vertex="1">
          <mxGeometry x="-4500" y="-970" width="20" height="20" as="geometry" />
        </mxCell>
        <mxCell id="PHZYu98MbgSkmlWvgTVJ-134" value="5" style="rounded=0;whiteSpace=wrap;html=1;strokeWidth=0.5;labelBackgroundColor=none;fillColor=#f8cecc;strokeColor=#b85450;" parent="1" vertex="1">
          <mxGeometry x="-4480" y="-970" width="20" height="20" as="geometry" />
        </mxCell>
        <mxCell id="PHZYu98MbgSkmlWvgTVJ-135" value="10" style="rounded=0;whiteSpace=wrap;html=1;strokeWidth=0.5;labelBackgroundColor=none;fillColor=#FAE5C7;strokeColor=#0F8B8D;fontColor=#143642;" parent="1" vertex="1">
          <mxGeometry x="-4380" y="-970" width="20" height="20" as="geometry" />
        </mxCell>
        <mxCell id="PHZYu98MbgSkmlWvgTVJ-136" value="7" style="rounded=0;whiteSpace=wrap;html=1;strokeWidth=0.5;labelBackgroundColor=none;fillColor=#FAE5C7;strokeColor=#0F8B8D;fontColor=#143642;" parent="1" vertex="1">
          <mxGeometry x="-4360" y="-970" width="20" height="20" as="geometry" />
        </mxCell>
        <mxCell id="PHZYu98MbgSkmlWvgTVJ-137" value="6" style="rounded=0;whiteSpace=wrap;html=1;strokeWidth=0.5;labelBackgroundColor=none;fillColor=#FAE5C7;strokeColor=#0F8B8D;fontColor=#143642;" parent="1" vertex="1">
          <mxGeometry x="-4420" y="-970" width="20" height="20" as="geometry" />
        </mxCell>
        <mxCell id="PHZYu98MbgSkmlWvgTVJ-138" value="3" style="rounded=0;whiteSpace=wrap;html=1;strokeWidth=0.5;labelBackgroundColor=none;fillColor=#FAE5C7;strokeColor=#0F8B8D;fontColor=#143642;" parent="1" vertex="1">
          <mxGeometry x="-4400" y="-970" width="20" height="20" as="geometry" />
        </mxCell>
        <mxCell id="PHZYu98MbgSkmlWvgTVJ-139" value="8" style="rounded=0;whiteSpace=wrap;html=1;strokeWidth=0.5;labelBackgroundColor=none;fillColor=#f8cecc;strokeColor=#b85450;" parent="1" vertex="1">
          <mxGeometry x="-4460" y="-970" width="20" height="20" as="geometry" />
        </mxCell>
        <mxCell id="PHZYu98MbgSkmlWvgTVJ-140" value="4" style="rounded=0;whiteSpace=wrap;html=1;strokeWidth=0.5;labelBackgroundColor=none;fillColor=#FAE5C7;strokeColor=#0F8B8D;fontColor=#143642;" parent="1" vertex="1">
          <mxGeometry x="-4440" y="-970" width="20" height="20" as="geometry" />
        </mxCell>
        <mxCell id="PHZYu98MbgSkmlWvgTVJ-141" value="2" style="rounded=0;whiteSpace=wrap;html=1;strokeWidth=0.5;labelBackgroundColor=none;fillColor=#f8cecc;strokeColor=#b85450;" parent="1" vertex="1">
          <mxGeometry x="-4500" y="-930" width="20" height="20" as="geometry" />
        </mxCell>
        <mxCell id="PHZYu98MbgSkmlWvgTVJ-142" value="5" style="rounded=0;whiteSpace=wrap;html=1;strokeWidth=0.5;labelBackgroundColor=none;fillColor=#f8cecc;strokeColor=#b85450;" parent="1" vertex="1">
          <mxGeometry x="-4460" y="-930" width="20" height="20" as="geometry" />
        </mxCell>
        <mxCell id="PHZYu98MbgSkmlWvgTVJ-143" value="10" style="rounded=0;whiteSpace=wrap;html=1;strokeWidth=0.5;labelBackgroundColor=none;fillColor=#FAE5C7;strokeColor=#0F8B8D;fontColor=#143642;" parent="1" vertex="1">
          <mxGeometry x="-4380" y="-930" width="20" height="20" as="geometry" />
        </mxCell>
        <mxCell id="PHZYu98MbgSkmlWvgTVJ-144" value="7" style="rounded=0;whiteSpace=wrap;html=1;strokeWidth=0.5;labelBackgroundColor=none;fillColor=#FAE5C7;strokeColor=#0F8B8D;fontColor=#143642;" parent="1" vertex="1">
          <mxGeometry x="-4360" y="-930" width="20" height="20" as="geometry" />
        </mxCell>
        <mxCell id="PHZYu98MbgSkmlWvgTVJ-145" value="6" style="rounded=0;whiteSpace=wrap;html=1;strokeWidth=0.5;labelBackgroundColor=none;fillColor=#FAE5C7;strokeColor=#0F8B8D;fontColor=#143642;" parent="1" vertex="1">
          <mxGeometry x="-4420" y="-930" width="20" height="20" as="geometry" />
        </mxCell>
        <mxCell id="PHZYu98MbgSkmlWvgTVJ-146" value="3" style="rounded=0;whiteSpace=wrap;html=1;strokeWidth=0.5;labelBackgroundColor=none;fillColor=#FAE5C7;strokeColor=#0F8B8D;fontColor=#143642;" parent="1" vertex="1">
          <mxGeometry x="-4400" y="-930" width="20" height="20" as="geometry" />
        </mxCell>
        <mxCell id="PHZYu98MbgSkmlWvgTVJ-147" value="8" style="rounded=0;whiteSpace=wrap;html=1;strokeWidth=0.5;labelBackgroundColor=none;fillColor=#f8cecc;strokeColor=#b85450;" parent="1" vertex="1">
          <mxGeometry x="-4440" y="-930" width="20" height="20" as="geometry" />
        </mxCell>
        <mxCell id="PHZYu98MbgSkmlWvgTVJ-148" value="4" style="rounded=0;whiteSpace=wrap;html=1;strokeWidth=0.5;labelBackgroundColor=none;fillColor=#f8cecc;strokeColor=#b85450;" parent="1" vertex="1">
          <mxGeometry x="-4480" y="-930" width="20" height="20" as="geometry" />
        </mxCell>
        <mxCell id="PHZYu98MbgSkmlWvgTVJ-149" value="2" style="rounded=0;whiteSpace=wrap;html=1;strokeWidth=0.5;labelBackgroundColor=none;fillColor=#f8cecc;strokeColor=#b85450;" parent="1" vertex="1">
          <mxGeometry x="-4500" y="-890" width="20" height="20" as="geometry" />
        </mxCell>
        <mxCell id="PHZYu98MbgSkmlWvgTVJ-150" value="5" style="rounded=0;whiteSpace=wrap;html=1;strokeWidth=0.5;labelBackgroundColor=none;fillColor=#f8cecc;strokeColor=#b85450;" parent="1" vertex="1">
          <mxGeometry x="-4460" y="-890" width="20" height="20" as="geometry" />
        </mxCell>
        <mxCell id="PHZYu98MbgSkmlWvgTVJ-151" value="10" style="rounded=0;whiteSpace=wrap;html=1;strokeWidth=0.5;labelBackgroundColor=none;fillColor=#FAE5C7;strokeColor=#0F8B8D;fontColor=#143642;" parent="1" vertex="1">
          <mxGeometry x="-4380" y="-890" width="20" height="20" as="geometry" />
        </mxCell>
        <mxCell id="PHZYu98MbgSkmlWvgTVJ-152" value="7" style="rounded=0;whiteSpace=wrap;html=1;strokeWidth=0.5;labelBackgroundColor=none;fillColor=#FAE5C7;strokeColor=#0F8B8D;fontColor=#143642;" parent="1" vertex="1">
          <mxGeometry x="-4360" y="-890" width="20" height="20" as="geometry" />
        </mxCell>
        <mxCell id="PHZYu98MbgSkmlWvgTVJ-153" value="6" style="rounded=0;whiteSpace=wrap;html=1;strokeWidth=0.5;labelBackgroundColor=none;fillColor=#f8cecc;strokeColor=#b85450;" parent="1" vertex="1">
          <mxGeometry x="-4440" y="-890" width="20" height="20" as="geometry" />
        </mxCell>
        <mxCell id="PHZYu98MbgSkmlWvgTVJ-154" value="3" style="rounded=0;whiteSpace=wrap;html=1;strokeWidth=0.5;labelBackgroundColor=none;fillColor=#FAE5C7;strokeColor=#0F8B8D;fontColor=#143642;" parent="1" vertex="1">
          <mxGeometry x="-4400" y="-890" width="20" height="20" as="geometry" />
        </mxCell>
        <mxCell id="PHZYu98MbgSkmlWvgTVJ-155" value="8" style="rounded=0;whiteSpace=wrap;html=1;strokeWidth=0.5;labelBackgroundColor=none;fillColor=#f8cecc;strokeColor=#b85450;" parent="1" vertex="1">
          <mxGeometry x="-4420" y="-890" width="20" height="20" as="geometry" />
        </mxCell>
        <mxCell id="PHZYu98MbgSkmlWvgTVJ-156" value="4" style="rounded=0;whiteSpace=wrap;html=1;strokeWidth=0.5;labelBackgroundColor=none;fillColor=#f8cecc;strokeColor=#b85450;" parent="1" vertex="1">
          <mxGeometry x="-4480" y="-890" width="20" height="20" as="geometry" />
        </mxCell>
        <mxCell id="PHZYu98MbgSkmlWvgTVJ-157" value="2" style="rounded=0;whiteSpace=wrap;html=1;strokeWidth=0.5;labelBackgroundColor=none;fillColor=#f8cecc;strokeColor=#b85450;" parent="1" vertex="1">
          <mxGeometry x="-4500" y="-850" width="20" height="20" as="geometry" />
        </mxCell>
        <mxCell id="PHZYu98MbgSkmlWvgTVJ-158" value="5" style="rounded=0;whiteSpace=wrap;html=1;strokeWidth=0.5;labelBackgroundColor=none;fillColor=#f8cecc;strokeColor=#b85450;" parent="1" vertex="1">
          <mxGeometry x="-4440" y="-850" width="20" height="20" as="geometry" />
        </mxCell>
        <mxCell id="PHZYu98MbgSkmlWvgTVJ-159" value="10" style="rounded=0;whiteSpace=wrap;html=1;strokeWidth=0.5;labelBackgroundColor=none;fillColor=#FAE5C7;strokeColor=#0F8B8D;fontColor=#143642;" parent="1" vertex="1">
          <mxGeometry x="-4380" y="-850" width="20" height="20" as="geometry" />
        </mxCell>
        <mxCell id="PHZYu98MbgSkmlWvgTVJ-160" value="7" style="rounded=0;whiteSpace=wrap;html=1;strokeWidth=0.5;labelBackgroundColor=none;fillColor=#FAE5C7;strokeColor=#0F8B8D;fontColor=#143642;" parent="1" vertex="1">
          <mxGeometry x="-4360" y="-850" width="20" height="20" as="geometry" />
        </mxCell>
        <mxCell id="PHZYu98MbgSkmlWvgTVJ-161" value="6" style="rounded=0;whiteSpace=wrap;html=1;strokeWidth=0.5;labelBackgroundColor=none;fillColor=#f8cecc;strokeColor=#b85450;" parent="1" vertex="1">
          <mxGeometry x="-4420" y="-850" width="20" height="20" as="geometry" />
        </mxCell>
        <mxCell id="PHZYu98MbgSkmlWvgTVJ-162" value="3" style="rounded=0;whiteSpace=wrap;html=1;strokeWidth=0.5;labelBackgroundColor=none;fillColor=#f8cecc;strokeColor=#b85450;" parent="1" vertex="1">
          <mxGeometry x="-4480" y="-850" width="20" height="20" as="geometry" />
        </mxCell>
        <mxCell id="PHZYu98MbgSkmlWvgTVJ-163" value="8" style="rounded=0;whiteSpace=wrap;html=1;strokeWidth=0.5;labelBackgroundColor=none;fillColor=#f8cecc;strokeColor=#b85450;" parent="1" vertex="1">
          <mxGeometry x="-4400" y="-850" width="20" height="20" as="geometry" />
        </mxCell>
        <mxCell id="PHZYu98MbgSkmlWvgTVJ-164" value="4" style="rounded=0;whiteSpace=wrap;html=1;strokeWidth=0.5;labelBackgroundColor=none;fillColor=#f8cecc;strokeColor=#b85450;" parent="1" vertex="1">
          <mxGeometry x="-4460" y="-850" width="20" height="20" as="geometry" />
        </mxCell>
        <mxCell id="PHZYu98MbgSkmlWvgTVJ-165" value="2" style="rounded=0;whiteSpace=wrap;html=1;strokeWidth=0.5;labelBackgroundColor=none;fillColor=#f8cecc;strokeColor=#b85450;" parent="1" vertex="1">
          <mxGeometry x="-4500" y="-810" width="20" height="20" as="geometry" />
        </mxCell>
        <mxCell id="PHZYu98MbgSkmlWvgTVJ-166" value="5" style="rounded=0;whiteSpace=wrap;html=1;strokeWidth=0.5;labelBackgroundColor=none;fillColor=#f8cecc;strokeColor=#b85450;" parent="1" vertex="1">
          <mxGeometry x="-4440" y="-810" width="20" height="20" as="geometry" />
        </mxCell>
        <mxCell id="PHZYu98MbgSkmlWvgTVJ-167" value="10" style="rounded=0;whiteSpace=wrap;html=1;strokeWidth=0.5;labelBackgroundColor=none;fillColor=#f8cecc;strokeColor=#b85450;" parent="1" vertex="1">
          <mxGeometry x="-4380" y="-810" width="20" height="20" as="geometry" />
        </mxCell>
        <mxCell id="PHZYu98MbgSkmlWvgTVJ-168" value="7" style="rounded=0;whiteSpace=wrap;html=1;strokeWidth=0.5;labelBackgroundColor=none;fillColor=#FAE5C7;strokeColor=#0F8B8D;fontColor=#143642;" parent="1" vertex="1">
          <mxGeometry x="-4360" y="-810" width="20" height="20" as="geometry" />
        </mxCell>
        <mxCell id="PHZYu98MbgSkmlWvgTVJ-169" value="6" style="rounded=0;whiteSpace=wrap;html=1;strokeWidth=0.5;labelBackgroundColor=none;fillColor=#f8cecc;strokeColor=#b85450;" parent="1" vertex="1">
          <mxGeometry x="-4420" y="-810" width="20" height="20" as="geometry" />
        </mxCell>
        <mxCell id="PHZYu98MbgSkmlWvgTVJ-170" value="3" style="rounded=0;whiteSpace=wrap;html=1;strokeWidth=0.5;labelBackgroundColor=none;fillColor=#f8cecc;strokeColor=#b85450;" parent="1" vertex="1">
          <mxGeometry x="-4480" y="-810" width="20" height="20" as="geometry" />
        </mxCell>
        <mxCell id="PHZYu98MbgSkmlWvgTVJ-171" value="8" style="rounded=0;whiteSpace=wrap;html=1;strokeWidth=0.5;labelBackgroundColor=none;fillColor=#f8cecc;strokeColor=#b85450;" parent="1" vertex="1">
          <mxGeometry x="-4400" y="-810" width="20" height="20" as="geometry" />
        </mxCell>
        <mxCell id="PHZYu98MbgSkmlWvgTVJ-172" value="4" style="rounded=0;whiteSpace=wrap;html=1;strokeWidth=0.5;labelBackgroundColor=none;fillColor=#f8cecc;strokeColor=#b85450;" parent="1" vertex="1">
          <mxGeometry x="-4460" y="-810" width="20" height="20" as="geometry" />
        </mxCell>
        <mxCell id="PHZYu98MbgSkmlWvgTVJ-173" value="2" style="rounded=0;whiteSpace=wrap;html=1;strokeWidth=0.5;labelBackgroundColor=none;fillColor=#f8cecc;strokeColor=#b85450;" parent="1" vertex="1">
          <mxGeometry x="-4500" y="-770" width="20" height="20" as="geometry" />
        </mxCell>
        <mxCell id="PHZYu98MbgSkmlWvgTVJ-174" value="5" style="rounded=0;whiteSpace=wrap;html=1;strokeWidth=0.5;labelBackgroundColor=none;fillColor=#f8cecc;strokeColor=#b85450;" parent="1" vertex="1">
          <mxGeometry x="-4440" y="-770" width="20" height="20" as="geometry" />
        </mxCell>
        <mxCell id="PHZYu98MbgSkmlWvgTVJ-175" value="10" style="rounded=0;whiteSpace=wrap;html=1;strokeWidth=0.5;labelBackgroundColor=none;fillColor=#f8cecc;strokeColor=#b85450;" parent="1" vertex="1">
          <mxGeometry x="-4360" y="-770" width="20" height="20" as="geometry" />
        </mxCell>
        <mxCell id="PHZYu98MbgSkmlWvgTVJ-176" value="7" style="rounded=0;whiteSpace=wrap;html=1;strokeWidth=0.5;labelBackgroundColor=none;fillColor=#f8cecc;strokeColor=#b85450;" parent="1" vertex="1">
          <mxGeometry x="-4400" y="-770" width="20" height="20" as="geometry" />
        </mxCell>
        <mxCell id="PHZYu98MbgSkmlWvgTVJ-177" value="6" style="rounded=0;whiteSpace=wrap;html=1;strokeWidth=0.5;labelBackgroundColor=none;fillColor=#f8cecc;strokeColor=#b85450;" parent="1" vertex="1">
          <mxGeometry x="-4420" y="-770" width="20" height="20" as="geometry" />
        </mxCell>
        <mxCell id="PHZYu98MbgSkmlWvgTVJ-178" value="3" style="rounded=0;whiteSpace=wrap;html=1;strokeWidth=0.5;labelBackgroundColor=none;fillColor=#f8cecc;strokeColor=#b85450;" parent="1" vertex="1">
          <mxGeometry x="-4480" y="-770" width="20" height="20" as="geometry" />
        </mxCell>
        <mxCell id="PHZYu98MbgSkmlWvgTVJ-179" value="8" style="rounded=0;whiteSpace=wrap;html=1;strokeWidth=0.5;labelBackgroundColor=none;fillColor=#f8cecc;strokeColor=#b85450;" parent="1" vertex="1">
          <mxGeometry x="-4380" y="-770" width="20" height="20" as="geometry" />
        </mxCell>
        <mxCell id="PHZYu98MbgSkmlWvgTVJ-180" value="4" style="rounded=0;whiteSpace=wrap;html=1;strokeWidth=0.5;labelBackgroundColor=none;fillColor=#f8cecc;strokeColor=#b85450;" parent="1" vertex="1">
          <mxGeometry x="-4460" y="-770" width="20" height="20" as="geometry" />
        </mxCell>
        <mxCell id="PHZYu98MbgSkmlWvgTVJ-181" value="" style="endArrow=none;startArrow=classic;html=1;rounded=0;strokeColor=#A8201A;fontColor=#143642;fillColor=#FAE5C7;endSize=3;startSize=3;endFill=0;" parent="1" edge="1">
          <mxGeometry width="50" height="50" relative="1" as="geometry">
            <mxPoint x="-4480" y="-940" as="sourcePoint" />
            <mxPoint x="-4430" y="-940" as="targetPoint" />
          </mxGeometry>
        </mxCell>
        <mxCell id="PHZYu98MbgSkmlWvgTVJ-182" value="" style="endArrow=none;startArrow=classic;html=1;rounded=0;strokeColor=#A8201A;fontColor=#143642;fillColor=#FAE5C7;endSize=3;startSize=3;endFill=0;" parent="1" edge="1">
          <mxGeometry width="50" height="50" relative="1" as="geometry">
            <mxPoint x="-4440" y="-900" as="sourcePoint" />
            <mxPoint x="-4410" y="-900" as="targetPoint" />
          </mxGeometry>
        </mxCell>
        <mxCell id="PHZYu98MbgSkmlWvgTVJ-183" value="" style="endArrow=none;startArrow=classic;html=1;rounded=0;strokeColor=#A8201A;fontColor=#143642;fillColor=#FAE5C7;endSize=3;startSize=3;endFill=0;" parent="1" edge="1">
          <mxGeometry width="50" height="50" relative="1" as="geometry">
            <mxPoint x="-4480" y="-860" as="sourcePoint" />
            <mxPoint x="-4390" y="-860" as="targetPoint" />
          </mxGeometry>
        </mxCell>
        <mxCell id="PHZYu98MbgSkmlWvgTVJ-184" value="" style="endArrow=none;startArrow=classic;html=1;rounded=0;strokeColor=#A8201A;fontColor=#143642;fillColor=#FAE5C7;endSize=3;startSize=3;endFill=0;" parent="1" edge="1">
          <mxGeometry width="50" height="50" relative="1" as="geometry">
            <mxPoint x="-4400" y="-780" as="sourcePoint" />
            <mxPoint x="-4350" y="-780" as="targetPoint" />
          </mxGeometry>
        </mxCell>
        <mxCell id="PHZYu98MbgSkmlWvgTVJ-185" value="h = 1&amp;nbsp; 第1趟&amp;nbsp; 比较1次&amp;nbsp; 交换1次" style="text;html=1;align=center;verticalAlign=middle;resizable=0;points=[];autosize=1;strokeColor=none;fillColor=none;fontColor=#143642;fontSize=12;" parent="1" vertex="1">
          <mxGeometry x="-4681" y="-1033" width="181" height="26" as="geometry" />
        </mxCell>
        <mxCell id="PHZYu98MbgSkmlWvgTVJ-186" value="h = 1&amp;nbsp; 第2趟&amp;nbsp; 比较1次&amp;nbsp; 交换0次" style="text;html=1;align=center;verticalAlign=middle;resizable=0;points=[];autosize=1;strokeColor=none;fillColor=none;fontColor=#143642;fontSize=12;" parent="1" vertex="1">
          <mxGeometry x="-4681" y="-993" width="181" height="26" as="geometry" />
        </mxCell>
        <mxCell id="PHZYu98MbgSkmlWvgTVJ-187" value="h = 1&amp;nbsp; 第3趟&amp;nbsp; 比较3次&amp;nbsp; 交换2次" style="text;html=1;align=center;verticalAlign=middle;resizable=0;points=[];autosize=1;strokeColor=none;fillColor=none;fontColor=#143642;fontSize=12;" parent="1" vertex="1">
          <mxGeometry x="-4681" y="-953" width="181" height="26" as="geometry" />
        </mxCell>
        <mxCell id="PHZYu98MbgSkmlWvgTVJ-188" value="h = 1&amp;nbsp; 第4趟&amp;nbsp; 比较2次&amp;nbsp; 交换1次" style="text;html=1;align=center;verticalAlign=middle;resizable=0;points=[];autosize=1;strokeColor=none;fillColor=none;fontColor=#143642;fontSize=12;" parent="1" vertex="1">
          <mxGeometry x="-4681" y="-913" width="181" height="26" as="geometry" />
        </mxCell>
        <mxCell id="PHZYu98MbgSkmlWvgTVJ-189" value="h = 1&amp;nbsp; 第5趟&amp;nbsp; 比较5次&amp;nbsp; 交换4次" style="text;html=1;align=center;verticalAlign=middle;resizable=0;points=[];autosize=1;strokeColor=none;fillColor=none;fontColor=#143642;fontSize=12;" parent="1" vertex="1">
          <mxGeometry x="-4681" y="-873" width="181" height="26" as="geometry" />
        </mxCell>
        <mxCell id="PHZYu98MbgSkmlWvgTVJ-190" value="h = 1&amp;nbsp; 第6趟&amp;nbsp; 比较1次&amp;nbsp; 交换0次" style="text;html=1;align=center;verticalAlign=middle;resizable=0;points=[];autosize=1;strokeColor=none;fillColor=none;fontColor=#143642;fontSize=12;" parent="1" vertex="1">
          <mxGeometry x="-4681" y="-832" width="181" height="26" as="geometry" />
        </mxCell>
        <mxCell id="PHZYu98MbgSkmlWvgTVJ-191" value="h = 1&amp;nbsp; 第7趟&amp;nbsp; 比较3次&amp;nbsp; 交换2次" style="text;html=1;align=center;verticalAlign=middle;resizable=0;points=[];autosize=1;strokeColor=none;fillColor=none;fontColor=#143642;fontSize=12;" parent="1" vertex="1">
          <mxGeometry x="-4681" y="-792" width="181" height="26" as="geometry" />
        </mxCell>
        <mxCell id="PHZYu98MbgSkmlWvgTVJ-193" value="5" style="rounded=0;whiteSpace=wrap;html=1;strokeWidth=0.5;labelBackgroundColor=none;fillColor=#FAE5C7;strokeColor=#0F8B8D;fontColor=#143642;" parent="1" vertex="1">
          <mxGeometry x="-4560" y="-640" width="20" height="20" as="geometry" />
        </mxCell>
        <mxCell id="PHZYu98MbgSkmlWvgTVJ-194" value="2" style="rounded=0;whiteSpace=wrap;html=1;strokeWidth=0.5;labelBackgroundColor=none;fillColor=#FAE5C7;strokeColor=#0F8B8D;fontColor=#143642;" parent="1" vertex="1">
          <mxGeometry x="-4540" y="-640" width="20" height="20" as="geometry" />
        </mxCell>
        <mxCell id="PHZYu98MbgSkmlWvgTVJ-195" value="10" style="rounded=0;whiteSpace=wrap;html=1;strokeWidth=0.5;labelBackgroundColor=none;fillColor=#FAE5C7;strokeColor=#0F8B8D;fontColor=#143642;" parent="1" vertex="1">
          <mxGeometry x="-4520" y="-640" width="20" height="20" as="geometry" />
        </mxCell>
        <mxCell id="PHZYu98MbgSkmlWvgTVJ-227" style="rounded=0;orthogonalLoop=1;jettySize=auto;html=1;exitX=0;exitY=1;exitDx=0;exitDy=0;endSize=5;strokeColor=#457B9D;" parent="1" source="PHZYu98MbgSkmlWvgTVJ-195" edge="1">
          <mxGeometry relative="1" as="geometry">
            <mxPoint x="-4580" y="-600" as="targetPoint" />
          </mxGeometry>
        </mxCell>
        <mxCell id="PHZYu98MbgSkmlWvgTVJ-196" value="7" style="rounded=0;whiteSpace=wrap;html=1;strokeWidth=0.5;labelBackgroundColor=none;fillColor=#FAE5C7;strokeColor=#0F8B8D;fontColor=#143642;" parent="1" vertex="1">
          <mxGeometry x="-4500" y="-640" width="20" height="20" as="geometry" />
        </mxCell>
        <mxCell id="PHZYu98MbgSkmlWvgTVJ-197" value="6" style="rounded=0;whiteSpace=wrap;html=1;strokeWidth=0.5;labelBackgroundColor=none;fillColor=#FAE5C7;strokeColor=#0F8B8D;fontColor=#143642;" parent="1" vertex="1">
          <mxGeometry x="-4480" y="-640" width="20" height="20" as="geometry" />
        </mxCell>
        <mxCell id="PHZYu98MbgSkmlWvgTVJ-198" value="3" style="rounded=0;whiteSpace=wrap;html=1;strokeWidth=0.5;labelBackgroundColor=none;fillColor=#FAE5C7;strokeColor=#0F8B8D;fontColor=#143642;" parent="1" vertex="1">
          <mxGeometry x="-4460" y="-640" width="20" height="20" as="geometry" />
        </mxCell>
        <mxCell id="PHZYu98MbgSkmlWvgTVJ-243" style="edgeStyle=none;shape=connector;rounded=0;orthogonalLoop=1;jettySize=auto;html=1;exitX=0;exitY=1;exitDx=0;exitDy=0;labelBackgroundColor=default;strokeColor=#457B9D;fontFamily=Helvetica;fontSize=11;fontColor=default;endArrow=classic;endSize=4;" parent="1" source="PHZYu98MbgSkmlWvgTVJ-199" edge="1">
          <mxGeometry relative="1" as="geometry">
            <mxPoint x="-4380" y="-600" as="targetPoint" />
          </mxGeometry>
        </mxCell>
        <mxCell id="PHZYu98MbgSkmlWvgTVJ-199" value="8" style="rounded=0;whiteSpace=wrap;html=1;strokeWidth=0.5;labelBackgroundColor=none;fillColor=#FAE5C7;strokeColor=#0F8B8D;fontColor=#143642;" parent="1" vertex="1">
          <mxGeometry x="-4440" y="-640" width="20" height="20" as="geometry" />
        </mxCell>
        <mxCell id="PHZYu98MbgSkmlWvgTVJ-200" value="4" style="rounded=0;whiteSpace=wrap;html=1;strokeWidth=0.5;labelBackgroundColor=none;fillColor=#FAE5C7;strokeColor=#0F8B8D;fontColor=#143642;" parent="1" vertex="1">
          <mxGeometry x="-4420" y="-640" width="20" height="20" as="geometry" />
        </mxCell>
        <mxCell id="PHZYu98MbgSkmlWvgTVJ-202" value="5" style="rounded=0;whiteSpace=wrap;html=1;strokeWidth=0.5;labelBackgroundColor=none;fillColor=#FAE5C7;strokeColor=#0F8B8D;fontColor=#143642;" parent="1" vertex="1">
          <mxGeometry x="-4640" y="-590" width="20" height="20" as="geometry" />
        </mxCell>
        <mxCell id="PHZYu98MbgSkmlWvgTVJ-244" style="edgeStyle=none;shape=connector;rounded=0;orthogonalLoop=1;jettySize=auto;html=1;exitX=0;exitY=1;exitDx=0;exitDy=0;labelBackgroundColor=default;strokeColor=#457B9D;fontFamily=Helvetica;fontSize=11;fontColor=default;endArrow=classic;endSize=4;" parent="1" source="PHZYu98MbgSkmlWvgTVJ-203" edge="1">
          <mxGeometry relative="1" as="geometry">
            <mxPoint x="-4650" y="-550" as="targetPoint" />
          </mxGeometry>
        </mxCell>
        <mxCell id="PHZYu98MbgSkmlWvgTVJ-203" value="2" style="rounded=0;whiteSpace=wrap;html=1;strokeWidth=0.5;labelBackgroundColor=none;fillColor=#FAE5C7;strokeColor=#0F8B8D;fontColor=#143642;" parent="1" vertex="1">
          <mxGeometry x="-4620" y="-590" width="20" height="20" as="geometry" />
        </mxCell>
        <mxCell id="PHZYu98MbgSkmlWvgTVJ-245" style="edgeStyle=none;shape=connector;rounded=0;orthogonalLoop=1;jettySize=auto;html=1;exitX=1;exitY=1;exitDx=0;exitDy=0;labelBackgroundColor=default;strokeColor=#457B9D;fontFamily=Helvetica;fontSize=11;fontColor=default;endArrow=classic;endSize=4;" parent="1" source="PHZYu98MbgSkmlWvgTVJ-204" edge="1">
          <mxGeometry relative="1" as="geometry">
            <mxPoint x="-4540" y="-550" as="targetPoint" />
          </mxGeometry>
        </mxCell>
        <mxCell id="PHZYu98MbgSkmlWvgTVJ-204" value="10" style="rounded=0;whiteSpace=wrap;html=1;strokeWidth=0.5;labelBackgroundColor=none;fillColor=#FAE5C7;strokeColor=#0F8B8D;fontColor=#143642;" parent="1" vertex="1">
          <mxGeometry x="-4600" y="-590" width="20" height="20" as="geometry" />
        </mxCell>
        <mxCell id="PHZYu98MbgSkmlWvgTVJ-205" value="7" style="rounded=0;whiteSpace=wrap;html=1;strokeWidth=0.5;labelBackgroundColor=none;fillColor=#FAE5C7;strokeColor=#0F8B8D;fontColor=#143642;" parent="1" vertex="1">
          <mxGeometry x="-4580" y="-590" width="20" height="20" as="geometry" />
        </mxCell>
        <mxCell id="PHZYu98MbgSkmlWvgTVJ-206" value="6" style="rounded=0;whiteSpace=wrap;html=1;strokeWidth=0.5;labelBackgroundColor=none;fillColor=#FAE5C7;strokeColor=#0F8B8D;fontColor=#143642;" parent="1" vertex="1">
          <mxGeometry x="-4400" y="-590" width="20" height="20" as="geometry" />
        </mxCell>
        <mxCell id="PHZYu98MbgSkmlWvgTVJ-246" style="edgeStyle=none;shape=connector;rounded=0;orthogonalLoop=1;jettySize=auto;html=1;exitX=0;exitY=1;exitDx=0;exitDy=0;labelBackgroundColor=default;strokeColor=#457B9D;fontFamily=Helvetica;fontSize=11;fontColor=default;endArrow=classic;endSize=4;" parent="1" source="PHZYu98MbgSkmlWvgTVJ-207" edge="1">
          <mxGeometry relative="1" as="geometry">
            <mxPoint x="-4420" y="-550" as="targetPoint" />
          </mxGeometry>
        </mxCell>
        <mxCell id="PHZYu98MbgSkmlWvgTVJ-207" value="3" style="rounded=0;whiteSpace=wrap;html=1;strokeWidth=0.5;labelBackgroundColor=none;fillColor=#FAE5C7;strokeColor=#0F8B8D;fontColor=#143642;" parent="1" vertex="1">
          <mxGeometry x="-4380" y="-590" width="20" height="20" as="geometry" />
        </mxCell>
        <mxCell id="PHZYu98MbgSkmlWvgTVJ-208" value="8" style="rounded=0;whiteSpace=wrap;html=1;strokeWidth=0.5;labelBackgroundColor=none;fillColor=#FAE5C7;strokeColor=#0F8B8D;fontColor=#143642;" parent="1" vertex="1">
          <mxGeometry x="-4360" y="-590" width="20" height="20" as="geometry" />
        </mxCell>
        <mxCell id="PHZYu98MbgSkmlWvgTVJ-247" style="edgeStyle=none;shape=connector;rounded=0;orthogonalLoop=1;jettySize=auto;html=1;exitX=0;exitY=1;exitDx=0;exitDy=0;labelBackgroundColor=default;strokeColor=#457B9D;fontFamily=Helvetica;fontSize=11;fontColor=default;endArrow=classic;endSize=4;" parent="1" source="PHZYu98MbgSkmlWvgTVJ-209" edge="1">
          <mxGeometry relative="1" as="geometry">
            <mxPoint x="-4300" y="-550" as="targetPoint" />
          </mxGeometry>
        </mxCell>
        <mxCell id="PHZYu98MbgSkmlWvgTVJ-209" value="4" style="rounded=0;whiteSpace=wrap;html=1;strokeWidth=0.5;labelBackgroundColor=none;fillColor=#FAE5C7;strokeColor=#0F8B8D;fontColor=#143642;" parent="1" vertex="1">
          <mxGeometry x="-4340" y="-590" width="20" height="20" as="geometry" />
        </mxCell>
        <mxCell id="PHZYu98MbgSkmlWvgTVJ-248" style="edgeStyle=none;shape=connector;rounded=0;orthogonalLoop=1;jettySize=auto;html=1;exitX=0.5;exitY=1;exitDx=0;exitDy=0;labelBackgroundColor=default;strokeColor=#457B9D;fontFamily=Helvetica;fontSize=11;fontColor=default;endArrow=classic;endSize=4;" parent="1" source="PHZYu98MbgSkmlWvgTVJ-210" edge="1">
          <mxGeometry relative="1" as="geometry">
            <mxPoint x="-4690" y="-500" as="targetPoint" />
          </mxGeometry>
        </mxCell>
        <mxCell id="PHZYu98MbgSkmlWvgTVJ-210" value="5" style="rounded=0;whiteSpace=wrap;html=1;strokeWidth=0.5;labelBackgroundColor=none;fillColor=#FAE5C7;strokeColor=#0F8B8D;fontColor=#143642;" parent="1" vertex="1">
          <mxGeometry x="-4680" y="-540" width="20" height="20" as="geometry" />
        </mxCell>
        <mxCell id="PHZYu98MbgSkmlWvgTVJ-249" style="edgeStyle=none;shape=connector;rounded=0;orthogonalLoop=1;jettySize=auto;html=1;exitX=0.5;exitY=1;exitDx=0;exitDy=0;labelBackgroundColor=default;strokeColor=#457B9D;fontFamily=Helvetica;fontSize=11;fontColor=default;endArrow=classic;endSize=4;" parent="1" source="PHZYu98MbgSkmlWvgTVJ-211" edge="1">
          <mxGeometry relative="1" as="geometry">
            <mxPoint x="-4630" y="-500" as="targetPoint" />
          </mxGeometry>
        </mxCell>
        <mxCell id="PHZYu98MbgSkmlWvgTVJ-211" value="2" style="rounded=0;whiteSpace=wrap;html=1;strokeWidth=0.5;labelBackgroundColor=none;fillColor=#FAE5C7;strokeColor=#0F8B8D;fontColor=#143642;" parent="1" vertex="1">
          <mxGeometry x="-4660" y="-540" width="20" height="20" as="geometry" />
        </mxCell>
        <mxCell id="PHZYu98MbgSkmlWvgTVJ-250" style="edgeStyle=none;shape=connector;rounded=0;orthogonalLoop=1;jettySize=auto;html=1;exitX=0.5;exitY=1;exitDx=0;exitDy=0;labelBackgroundColor=default;strokeColor=#457B9D;fontFamily=Helvetica;fontSize=11;fontColor=default;endArrow=classic;endSize=4;" parent="1" source="PHZYu98MbgSkmlWvgTVJ-212" edge="1">
          <mxGeometry relative="1" as="geometry">
            <mxPoint x="-4570" y="-500" as="targetPoint" />
          </mxGeometry>
        </mxCell>
        <mxCell id="PHZYu98MbgSkmlWvgTVJ-212" value="10" style="rounded=0;whiteSpace=wrap;html=1;strokeWidth=0.5;labelBackgroundColor=none;fillColor=#FAE5C7;strokeColor=#0F8B8D;fontColor=#143642;" parent="1" vertex="1">
          <mxGeometry x="-4560" y="-540" width="20" height="20" as="geometry" />
        </mxCell>
        <mxCell id="PHZYu98MbgSkmlWvgTVJ-251" style="edgeStyle=none;shape=connector;rounded=0;orthogonalLoop=1;jettySize=auto;html=1;exitX=0.5;exitY=1;exitDx=0;exitDy=0;labelBackgroundColor=default;strokeColor=#457B9D;fontFamily=Helvetica;fontSize=11;fontColor=default;endArrow=classic;endSize=4;" parent="1" source="PHZYu98MbgSkmlWvgTVJ-213" edge="1">
          <mxGeometry relative="1" as="geometry">
            <mxPoint x="-4510" y="-500" as="targetPoint" />
          </mxGeometry>
        </mxCell>
        <mxCell id="PHZYu98MbgSkmlWvgTVJ-213" value="7" style="rounded=0;whiteSpace=wrap;html=1;strokeWidth=0.5;labelBackgroundColor=none;fillColor=#FAE5C7;strokeColor=#0F8B8D;fontColor=#143642;" parent="1" vertex="1">
          <mxGeometry x="-4540" y="-540" width="20" height="20" as="geometry" />
        </mxCell>
        <mxCell id="PHZYu98MbgSkmlWvgTVJ-252" style="edgeStyle=none;shape=connector;rounded=0;orthogonalLoop=1;jettySize=auto;html=1;exitX=0.5;exitY=1;exitDx=0;exitDy=0;labelBackgroundColor=default;strokeColor=#457B9D;fontFamily=Helvetica;fontSize=11;fontColor=default;endArrow=classic;endSize=4;" parent="1" source="PHZYu98MbgSkmlWvgTVJ-214" edge="1">
          <mxGeometry relative="1" as="geometry">
            <mxPoint x="-4450" y="-500" as="targetPoint" />
          </mxGeometry>
        </mxCell>
        <mxCell id="PHZYu98MbgSkmlWvgTVJ-214" value="6" style="rounded=0;whiteSpace=wrap;html=1;strokeWidth=0.5;labelBackgroundColor=none;fillColor=#FAE5C7;strokeColor=#0F8B8D;fontColor=#143642;" parent="1" vertex="1">
          <mxGeometry x="-4440" y="-540" width="20" height="20" as="geometry" />
        </mxCell>
        <mxCell id="PHZYu98MbgSkmlWvgTVJ-253" style="edgeStyle=none;shape=connector;rounded=0;orthogonalLoop=1;jettySize=auto;html=1;exitX=0.5;exitY=1;exitDx=0;exitDy=0;labelBackgroundColor=default;strokeColor=#457B9D;fontFamily=Helvetica;fontSize=11;fontColor=default;endArrow=classic;endSize=4;" parent="1" source="PHZYu98MbgSkmlWvgTVJ-215" edge="1">
          <mxGeometry relative="1" as="geometry">
            <mxPoint x="-4390" y="-500" as="targetPoint" />
          </mxGeometry>
        </mxCell>
        <mxCell id="PHZYu98MbgSkmlWvgTVJ-215" value="3" style="rounded=0;whiteSpace=wrap;html=1;strokeWidth=0.5;labelBackgroundColor=none;fillColor=#FAE5C7;strokeColor=#0F8B8D;fontColor=#143642;" parent="1" vertex="1">
          <mxGeometry x="-4420" y="-540" width="20" height="20" as="geometry" />
        </mxCell>
        <mxCell id="PHZYu98MbgSkmlWvgTVJ-254" style="edgeStyle=none;shape=connector;rounded=0;orthogonalLoop=1;jettySize=auto;html=1;exitX=0.5;exitY=1;exitDx=0;exitDy=0;labelBackgroundColor=default;strokeColor=#457B9D;fontFamily=Helvetica;fontSize=11;fontColor=default;endArrow=classic;endSize=4;" parent="1" source="PHZYu98MbgSkmlWvgTVJ-216" edge="1">
          <mxGeometry relative="1" as="geometry">
            <mxPoint x="-4330" y="-500" as="targetPoint" />
          </mxGeometry>
        </mxCell>
        <mxCell id="PHZYu98MbgSkmlWvgTVJ-216" value="8" style="rounded=0;whiteSpace=wrap;html=1;strokeWidth=0.5;labelBackgroundColor=none;fillColor=#FAE5C7;strokeColor=#0F8B8D;fontColor=#143642;" parent="1" vertex="1">
          <mxGeometry x="-4320" y="-540" width="20" height="20" as="geometry" />
        </mxCell>
        <mxCell id="PHZYu98MbgSkmlWvgTVJ-255" style="edgeStyle=none;shape=connector;rounded=0;orthogonalLoop=1;jettySize=auto;html=1;exitX=0.25;exitY=1;exitDx=0;exitDy=0;labelBackgroundColor=default;strokeColor=#457B9D;fontFamily=Helvetica;fontSize=11;fontColor=default;endArrow=classic;endSize=4;" parent="1" source="PHZYu98MbgSkmlWvgTVJ-217" edge="1">
          <mxGeometry relative="1" as="geometry">
            <mxPoint x="-4270" y="-500" as="targetPoint" />
          </mxGeometry>
        </mxCell>
        <mxCell id="PHZYu98MbgSkmlWvgTVJ-217" value="4" style="rounded=0;whiteSpace=wrap;html=1;strokeWidth=0.5;labelBackgroundColor=none;fillColor=#FAE5C7;strokeColor=#0F8B8D;fontColor=#143642;" parent="1" vertex="1">
          <mxGeometry x="-4300" y="-540" width="20" height="20" as="geometry" />
        </mxCell>
        <mxCell id="PHZYu98MbgSkmlWvgTVJ-256" style="edgeStyle=none;shape=connector;rounded=0;orthogonalLoop=1;jettySize=auto;html=1;exitX=0.5;exitY=1;exitDx=0;exitDy=0;labelBackgroundColor=default;strokeColor=#A8201A;fontFamily=Helvetica;fontSize=11;fontColor=default;endArrow=classic;endSize=4;" parent="1" source="PHZYu98MbgSkmlWvgTVJ-218" edge="1">
          <mxGeometry relative="1" as="geometry">
            <mxPoint x="-4670" y="-450" as="targetPoint" />
          </mxGeometry>
        </mxCell>
        <mxCell id="PHZYu98MbgSkmlWvgTVJ-218" value="5" style="rounded=0;whiteSpace=wrap;html=1;strokeWidth=0.5;labelBackgroundColor=none;fillColor=#FAE5C7;strokeColor=#0F8B8D;fontColor=#143642;" parent="1" vertex="1">
          <mxGeometry x="-4700" y="-490" width="20" height="20" as="geometry" />
        </mxCell>
        <mxCell id="PHZYu98MbgSkmlWvgTVJ-257" style="edgeStyle=none;shape=connector;rounded=0;orthogonalLoop=1;jettySize=auto;html=1;exitX=0.5;exitY=1;exitDx=0;exitDy=0;labelBackgroundColor=default;strokeColor=#A8201A;fontFamily=Helvetica;fontSize=11;fontColor=default;endArrow=classic;endSize=4;" parent="1" source="PHZYu98MbgSkmlWvgTVJ-219" edge="1">
          <mxGeometry relative="1" as="geometry">
            <mxPoint x="-4650" y="-450" as="targetPoint" />
          </mxGeometry>
        </mxCell>
        <mxCell id="PHZYu98MbgSkmlWvgTVJ-219" value="2" style="rounded=0;whiteSpace=wrap;html=1;strokeWidth=0.5;labelBackgroundColor=none;fillColor=#FAE5C7;strokeColor=#0F8B8D;fontColor=#143642;" parent="1" vertex="1">
          <mxGeometry x="-4640" y="-490" width="20" height="20" as="geometry" />
        </mxCell>
        <mxCell id="PHZYu98MbgSkmlWvgTVJ-259" style="edgeStyle=none;shape=connector;rounded=0;orthogonalLoop=1;jettySize=auto;html=1;exitX=0.25;exitY=1;exitDx=0;exitDy=0;labelBackgroundColor=default;strokeColor=#A8201A;fontFamily=Helvetica;fontSize=11;fontColor=default;endArrow=classic;endSize=4;" parent="1" source="PHZYu98MbgSkmlWvgTVJ-220" edge="1">
          <mxGeometry relative="1" as="geometry">
            <mxPoint x="-4550" y="-450" as="targetPoint" />
          </mxGeometry>
        </mxCell>
        <mxCell id="PHZYu98MbgSkmlWvgTVJ-220" value="10" style="rounded=0;whiteSpace=wrap;html=1;strokeWidth=0.5;labelBackgroundColor=none;fillColor=#FAE5C7;strokeColor=#0F8B8D;fontColor=#143642;" parent="1" vertex="1">
          <mxGeometry x="-4580" y="-490" width="20" height="20" as="geometry" />
        </mxCell>
        <mxCell id="PHZYu98MbgSkmlWvgTVJ-260" style="edgeStyle=none;shape=connector;rounded=0;orthogonalLoop=1;jettySize=auto;html=1;exitX=0.5;exitY=1;exitDx=0;exitDy=0;labelBackgroundColor=default;strokeColor=#A8201A;fontFamily=Helvetica;fontSize=11;fontColor=default;endArrow=classic;endSize=4;" parent="1" source="PHZYu98MbgSkmlWvgTVJ-221" edge="1">
          <mxGeometry relative="1" as="geometry">
            <mxPoint x="-4530" y="-450" as="targetPoint" />
          </mxGeometry>
        </mxCell>
        <mxCell id="PHZYu98MbgSkmlWvgTVJ-221" value="7" style="rounded=0;whiteSpace=wrap;html=1;strokeWidth=0.5;labelBackgroundColor=none;fillColor=#FAE5C7;strokeColor=#0F8B8D;fontColor=#143642;" parent="1" vertex="1">
          <mxGeometry x="-4520" y="-490" width="20" height="20" as="geometry" />
        </mxCell>
        <mxCell id="PHZYu98MbgSkmlWvgTVJ-261" style="edgeStyle=none;shape=connector;rounded=0;orthogonalLoop=1;jettySize=auto;html=1;exitX=0.5;exitY=1;exitDx=0;exitDy=0;labelBackgroundColor=default;strokeColor=#A8201A;fontFamily=Helvetica;fontSize=11;fontColor=default;endArrow=classic;endSize=4;" parent="1" source="PHZYu98MbgSkmlWvgTVJ-222" edge="1">
          <mxGeometry relative="1" as="geometry">
            <mxPoint x="-4430" y="-450" as="targetPoint" />
          </mxGeometry>
        </mxCell>
        <mxCell id="PHZYu98MbgSkmlWvgTVJ-222" value="6" style="rounded=0;whiteSpace=wrap;html=1;strokeWidth=0.5;labelBackgroundColor=none;fillColor=#FAE5C7;strokeColor=#0F8B8D;fontColor=#143642;" parent="1" vertex="1">
          <mxGeometry x="-4460" y="-490" width="20" height="20" as="geometry" />
        </mxCell>
        <mxCell id="PHZYu98MbgSkmlWvgTVJ-262" style="edgeStyle=none;shape=connector;rounded=0;orthogonalLoop=1;jettySize=auto;html=1;exitX=0.5;exitY=1;exitDx=0;exitDy=0;labelBackgroundColor=default;strokeColor=#A8201A;fontFamily=Helvetica;fontSize=11;fontColor=default;endArrow=classic;endSize=4;" parent="1" source="PHZYu98MbgSkmlWvgTVJ-223" edge="1">
          <mxGeometry relative="1" as="geometry">
            <mxPoint x="-4410" y="-450" as="targetPoint" />
          </mxGeometry>
        </mxCell>
        <mxCell id="PHZYu98MbgSkmlWvgTVJ-223" value="3" style="rounded=0;whiteSpace=wrap;html=1;strokeWidth=0.5;labelBackgroundColor=none;fillColor=#FAE5C7;strokeColor=#0F8B8D;fontColor=#143642;" parent="1" vertex="1">
          <mxGeometry x="-4400" y="-490" width="20" height="20" as="geometry" />
        </mxCell>
        <mxCell id="PHZYu98MbgSkmlWvgTVJ-263" style="edgeStyle=none;shape=connector;rounded=0;orthogonalLoop=1;jettySize=auto;html=1;exitX=0.5;exitY=1;exitDx=0;exitDy=0;labelBackgroundColor=default;strokeColor=#A8201A;fontFamily=Helvetica;fontSize=11;fontColor=default;endArrow=classic;endSize=4;" parent="1" source="PHZYu98MbgSkmlWvgTVJ-224" edge="1">
          <mxGeometry relative="1" as="geometry">
            <mxPoint x="-4310" y="-450" as="targetPoint" />
          </mxGeometry>
        </mxCell>
        <mxCell id="PHZYu98MbgSkmlWvgTVJ-224" value="8" style="rounded=0;whiteSpace=wrap;html=1;strokeWidth=0.5;labelBackgroundColor=none;fillColor=#FAE5C7;strokeColor=#0F8B8D;fontColor=#143642;" parent="1" vertex="1">
          <mxGeometry x="-4340" y="-490" width="20" height="20" as="geometry" />
        </mxCell>
        <mxCell id="PHZYu98MbgSkmlWvgTVJ-264" style="edgeStyle=none;shape=connector;rounded=0;orthogonalLoop=1;jettySize=auto;html=1;exitX=0.5;exitY=1;exitDx=0;exitDy=0;labelBackgroundColor=default;strokeColor=#A8201A;fontFamily=Helvetica;fontSize=11;fontColor=default;endArrow=classic;endSize=4;" parent="1" edge="1">
          <mxGeometry relative="1" as="geometry">
            <mxPoint x="-4290" y="-450" as="targetPoint" />
            <mxPoint x="-4270" y="-470" as="sourcePoint" />
          </mxGeometry>
        </mxCell>
        <mxCell id="PHZYu98MbgSkmlWvgTVJ-270" style="edgeStyle=none;shape=connector;rounded=0;orthogonalLoop=1;jettySize=auto;html=1;exitX=0;exitY=1;exitDx=0;exitDy=0;labelBackgroundColor=default;strokeColor=#A8201A;fontFamily=Helvetica;fontSize=11;fontColor=default;endArrow=classic;endSize=4;" parent="1" source="PHZYu98MbgSkmlWvgTVJ-235" edge="1">
          <mxGeometry relative="1" as="geometry">
            <mxPoint x="-4620" y="-400" as="targetPoint" />
          </mxGeometry>
        </mxCell>
        <mxCell id="PHZYu98MbgSkmlWvgTVJ-235" value="5" style="rounded=0;whiteSpace=wrap;html=1;strokeWidth=0.5;labelBackgroundColor=none;fillColor=#f8cecc;strokeColor=#b85450;" parent="1" vertex="1">
          <mxGeometry x="-4660" y="-440" width="20" height="20" as="geometry" />
        </mxCell>
        <mxCell id="PHZYu98MbgSkmlWvgTVJ-236" value="2" style="rounded=0;whiteSpace=wrap;html=1;strokeWidth=0.5;labelBackgroundColor=none;fillColor=#f8cecc;strokeColor=#b85450;" parent="1" vertex="1">
          <mxGeometry x="-4680" y="-440" width="20" height="20" as="geometry" />
        </mxCell>
        <mxCell id="PHZYu98MbgSkmlWvgTVJ-271" style="edgeStyle=none;shape=connector;rounded=0;orthogonalLoop=1;jettySize=auto;html=1;exitX=0;exitY=1;exitDx=0;exitDy=0;labelBackgroundColor=default;strokeColor=#A8201A;fontFamily=Helvetica;fontSize=11;fontColor=default;endArrow=classic;endSize=4;" parent="1" source="PHZYu98MbgSkmlWvgTVJ-237" edge="1">
          <mxGeometry relative="1" as="geometry">
            <mxPoint x="-4580" y="-400" as="targetPoint" />
          </mxGeometry>
        </mxCell>
        <mxCell id="PHZYu98MbgSkmlWvgTVJ-237" value="10" style="rounded=0;whiteSpace=wrap;html=1;strokeWidth=0.5;labelBackgroundColor=none;fillColor=#f8cecc;strokeColor=#b85450;" parent="1" vertex="1">
          <mxGeometry x="-4540" y="-440" width="20" height="20" as="geometry" />
        </mxCell>
        <mxCell id="PHZYu98MbgSkmlWvgTVJ-238" value="7" style="rounded=0;whiteSpace=wrap;html=1;strokeWidth=0.5;labelBackgroundColor=none;fillColor=#f8cecc;strokeColor=#b85450;" parent="1" vertex="1">
          <mxGeometry x="-4560" y="-440" width="20" height="20" as="geometry" />
        </mxCell>
        <mxCell id="PHZYu98MbgSkmlWvgTVJ-276" style="edgeStyle=none;shape=connector;rounded=0;orthogonalLoop=1;jettySize=auto;html=1;exitX=0;exitY=1;exitDx=0;exitDy=0;labelBackgroundColor=default;strokeColor=#A8201A;fontFamily=Helvetica;fontSize=11;fontColor=default;endArrow=classic;endSize=4;" parent="1" source="PHZYu98MbgSkmlWvgTVJ-239" edge="1">
          <mxGeometry relative="1" as="geometry">
            <mxPoint x="-4380" y="-400" as="targetPoint" />
          </mxGeometry>
        </mxCell>
        <mxCell id="PHZYu98MbgSkmlWvgTVJ-239" value="6" style="rounded=0;whiteSpace=wrap;html=1;strokeWidth=0.5;labelBackgroundColor=none;fillColor=#f8cecc;strokeColor=#b85450;" parent="1" vertex="1">
          <mxGeometry x="-4420" y="-440" width="20" height="20" as="geometry" />
        </mxCell>
        <mxCell id="PHZYu98MbgSkmlWvgTVJ-240" value="3" style="rounded=0;whiteSpace=wrap;html=1;strokeWidth=0.5;labelBackgroundColor=none;fillColor=#f8cecc;strokeColor=#b85450;" parent="1" vertex="1">
          <mxGeometry x="-4440" y="-440" width="20" height="20" as="geometry" />
        </mxCell>
        <mxCell id="PHZYu98MbgSkmlWvgTVJ-277" style="edgeStyle=none;shape=connector;rounded=0;orthogonalLoop=1;jettySize=auto;html=1;exitX=0;exitY=1;exitDx=0;exitDy=0;labelBackgroundColor=default;strokeColor=#A8201A;fontFamily=Helvetica;fontSize=11;fontColor=default;endArrow=classic;endSize=4;" parent="1" source="PHZYu98MbgSkmlWvgTVJ-241" edge="1">
          <mxGeometry relative="1" as="geometry">
            <mxPoint x="-4340" y="-400" as="targetPoint" />
          </mxGeometry>
        </mxCell>
        <mxCell id="PHZYu98MbgSkmlWvgTVJ-241" value="8" style="rounded=0;whiteSpace=wrap;html=1;strokeWidth=0.5;labelBackgroundColor=none;fillColor=#f8cecc;strokeColor=#b85450;" parent="1" vertex="1">
          <mxGeometry x="-4300" y="-440" width="20" height="20" as="geometry" />
        </mxCell>
        <mxCell id="PHZYu98MbgSkmlWvgTVJ-242" value="4" style="rounded=0;whiteSpace=wrap;html=1;strokeWidth=0.5;labelBackgroundColor=none;fillColor=#f8cecc;strokeColor=#b85450;" parent="1" vertex="1">
          <mxGeometry x="-4320" y="-440" width="20" height="20" as="geometry" />
        </mxCell>
        <mxCell id="PHZYu98MbgSkmlWvgTVJ-265" value="5" style="rounded=0;whiteSpace=wrap;html=1;strokeWidth=0.5;labelBackgroundColor=none;fillColor=#f8cecc;strokeColor=#b85450;" parent="1" vertex="1">
          <mxGeometry x="-4620" y="-390" width="20" height="20" as="geometry" />
        </mxCell>
        <mxCell id="PHZYu98MbgSkmlWvgTVJ-266" value="2" style="rounded=0;whiteSpace=wrap;html=1;strokeWidth=0.5;labelBackgroundColor=none;fillColor=#f8cecc;strokeColor=#b85450;" parent="1" vertex="1">
          <mxGeometry x="-4640" y="-390" width="20" height="20" as="geometry" />
        </mxCell>
        <mxCell id="PHZYu98MbgSkmlWvgTVJ-267" value="10" style="rounded=0;whiteSpace=wrap;html=1;strokeWidth=0.5;labelBackgroundColor=none;fillColor=#f8cecc;strokeColor=#b85450;" parent="1" vertex="1">
          <mxGeometry x="-4580" y="-390" width="20" height="20" as="geometry" />
        </mxCell>
        <mxCell id="PHZYu98MbgSkmlWvgTVJ-286" style="edgeStyle=none;shape=connector;rounded=0;orthogonalLoop=1;jettySize=auto;html=1;exitX=0;exitY=1;exitDx=0;exitDy=0;labelBackgroundColor=default;strokeColor=#A8201A;fontFamily=Helvetica;fontSize=11;fontColor=default;endArrow=classic;endSize=4;" parent="1" source="PHZYu98MbgSkmlWvgTVJ-268" edge="1">
          <mxGeometry relative="1" as="geometry">
            <mxPoint x="-4520" y="-350" as="targetPoint" />
          </mxGeometry>
        </mxCell>
        <mxCell id="PHZYu98MbgSkmlWvgTVJ-268" value="7" style="rounded=0;whiteSpace=wrap;html=1;strokeWidth=0.5;labelBackgroundColor=none;fillColor=#f8cecc;strokeColor=#b85450;" parent="1" vertex="1">
          <mxGeometry x="-4600" y="-390" width="20" height="20" as="geometry" />
        </mxCell>
        <mxCell id="PHZYu98MbgSkmlWvgTVJ-287" style="edgeStyle=none;shape=connector;rounded=0;orthogonalLoop=1;jettySize=auto;html=1;exitX=0;exitY=0.75;exitDx=0;exitDy=0;labelBackgroundColor=default;strokeColor=#A8201A;fontFamily=Helvetica;fontSize=11;fontColor=default;endArrow=classic;endSize=4;" parent="1" source="PHZYu98MbgSkmlWvgTVJ-272" edge="1">
          <mxGeometry relative="1" as="geometry">
            <mxPoint x="-4440" y="-350" as="targetPoint" />
          </mxGeometry>
        </mxCell>
        <mxCell id="PHZYu98MbgSkmlWvgTVJ-272" value="6" style="rounded=0;whiteSpace=wrap;html=1;strokeWidth=0.5;labelBackgroundColor=none;fillColor=#f8cecc;strokeColor=#b85450;" parent="1" vertex="1">
          <mxGeometry x="-4360" y="-390" width="20" height="20" as="geometry" />
        </mxCell>
        <mxCell id="PHZYu98MbgSkmlWvgTVJ-273" value="3" style="rounded=0;whiteSpace=wrap;html=1;strokeWidth=0.5;labelBackgroundColor=none;fillColor=#f8cecc;strokeColor=#b85450;" parent="1" vertex="1">
          <mxGeometry x="-4400" y="-390" width="20" height="20" as="geometry" />
        </mxCell>
        <mxCell id="PHZYu98MbgSkmlWvgTVJ-274" value="8" style="rounded=0;whiteSpace=wrap;html=1;strokeWidth=0.5;labelBackgroundColor=none;fillColor=#f8cecc;strokeColor=#b85450;" parent="1" vertex="1">
          <mxGeometry x="-4340" y="-390" width="20" height="20" as="geometry" />
        </mxCell>
        <mxCell id="PHZYu98MbgSkmlWvgTVJ-275" value="4" style="rounded=0;whiteSpace=wrap;html=1;strokeWidth=0.5;labelBackgroundColor=none;fillColor=#f8cecc;strokeColor=#b85450;" parent="1" vertex="1">
          <mxGeometry x="-4380" y="-390" width="20" height="20" as="geometry" />
        </mxCell>
        <mxCell id="PHZYu98MbgSkmlWvgTVJ-278" value="5" style="rounded=0;whiteSpace=wrap;html=1;strokeWidth=0.5;labelBackgroundColor=none;fillColor=#f8cecc;strokeColor=#b85450;" parent="1" vertex="1">
          <mxGeometry x="-4500" y="-340" width="20" height="20" as="geometry" />
        </mxCell>
        <mxCell id="PHZYu98MbgSkmlWvgTVJ-279" value="2" style="rounded=0;whiteSpace=wrap;html=1;strokeWidth=0.5;labelBackgroundColor=none;fillColor=#f8cecc;strokeColor=#b85450;" parent="1" vertex="1">
          <mxGeometry x="-4560" y="-340" width="20" height="20" as="geometry" />
        </mxCell>
        <mxCell id="PHZYu98MbgSkmlWvgTVJ-280" value="10" style="rounded=0;whiteSpace=wrap;html=1;strokeWidth=0.5;labelBackgroundColor=none;fillColor=#f8cecc;strokeColor=#b85450;" parent="1" vertex="1">
          <mxGeometry x="-4420" y="-340" width="20" height="20" as="geometry" />
        </mxCell>
        <mxCell id="PHZYu98MbgSkmlWvgTVJ-281" value="7" style="rounded=0;whiteSpace=wrap;html=1;strokeWidth=0.5;labelBackgroundColor=none;fillColor=#f8cecc;strokeColor=#b85450;" parent="1" vertex="1">
          <mxGeometry x="-4460" y="-340" width="20" height="20" as="geometry" />
        </mxCell>
        <mxCell id="PHZYu98MbgSkmlWvgTVJ-282" value="6" style="rounded=0;whiteSpace=wrap;html=1;strokeWidth=0.5;labelBackgroundColor=none;fillColor=#f8cecc;strokeColor=#b85450;" parent="1" vertex="1">
          <mxGeometry x="-4480" y="-340" width="20" height="20" as="geometry" />
        </mxCell>
        <mxCell id="PHZYu98MbgSkmlWvgTVJ-283" value="3" style="rounded=0;whiteSpace=wrap;html=1;strokeWidth=0.5;labelBackgroundColor=none;fillColor=#f8cecc;strokeColor=#b85450;" parent="1" vertex="1">
          <mxGeometry x="-4540" y="-340" width="20" height="20" as="geometry" />
        </mxCell>
        <mxCell id="PHZYu98MbgSkmlWvgTVJ-284" value="8" style="rounded=0;whiteSpace=wrap;html=1;strokeWidth=0.5;labelBackgroundColor=none;fillColor=#f8cecc;strokeColor=#b85450;" parent="1" vertex="1">
          <mxGeometry x="-4440" y="-340" width="20" height="20" as="geometry" />
        </mxCell>
        <mxCell id="PHZYu98MbgSkmlWvgTVJ-285" value="4" style="rounded=0;whiteSpace=wrap;html=1;strokeWidth=0.5;labelBackgroundColor=none;fillColor=#f8cecc;strokeColor=#b85450;" parent="1" vertex="1">
          <mxGeometry x="-4520" y="-340" width="20" height="20" as="geometry" />
        </mxCell>
        <mxCell id="7M5ssbUfigBpuXdD1gi4-2" value="10" style="rounded=0;whiteSpace=wrap;html=1;strokeWidth=0.5;labelBackgroundColor=none;fillColor=#FAE5C7;strokeColor=#0F8B8D;fontColor=#143642;" parent="1" vertex="1">
          <mxGeometry x="-4300" y="-40" width="20" height="20" as="geometry" />
        </mxCell>
        <mxCell id="7M5ssbUfigBpuXdD1gi4-3" value="3" style="rounded=0;whiteSpace=wrap;html=1;strokeWidth=0.5;labelBackgroundColor=none;fillColor=#FAE5C7;strokeColor=#0F8B8D;fontColor=#143642;" parent="1" vertex="1">
          <mxGeometry x="-4440" y="-40" width="20" height="20" as="geometry" />
        </mxCell>
        <mxCell id="7M5ssbUfigBpuXdD1gi4-4" value="2" style="rounded=0;whiteSpace=wrap;html=1;strokeWidth=0.5;labelBackgroundColor=none;fillColor=#FAE5C7;strokeColor=#0F8B8D;fontColor=#143642;" parent="1" vertex="1">
          <mxGeometry x="-4420" y="-40" width="20" height="20" as="geometry" />
        </mxCell>
        <mxCell id="7M5ssbUfigBpuXdD1gi4-5" value="4" style="rounded=0;whiteSpace=wrap;html=1;strokeWidth=0.5;labelBackgroundColor=none;fillColor=#FAE5C7;strokeColor=#0F8B8D;fontColor=#143642;" parent="1" vertex="1">
          <mxGeometry x="-4400" y="-40" width="20" height="20" as="geometry" />
        </mxCell>
        <mxCell id="7M5ssbUfigBpuXdD1gi4-6" value="5" style="rounded=0;whiteSpace=wrap;html=1;strokeWidth=0.5;labelBackgroundColor=none;fillColor=#f8cecc;strokeColor=#b85450;" parent="1" vertex="1">
          <mxGeometry x="-4380" y="-40" width="20" height="20" as="geometry" />
        </mxCell>
        <mxCell id="7M5ssbUfigBpuXdD1gi4-7" value="6" style="rounded=0;whiteSpace=wrap;html=1;strokeWidth=0.5;labelBackgroundColor=none;fillColor=#FAE5C7;strokeColor=#0F8B8D;fontColor=#143642;" parent="1" vertex="1">
          <mxGeometry x="-4360" y="-40" width="20" height="20" as="geometry" />
        </mxCell>
        <mxCell id="7M5ssbUfigBpuXdD1gi4-8" value="7" style="rounded=0;whiteSpace=wrap;html=1;strokeWidth=0.5;labelBackgroundColor=none;fillColor=#FAE5C7;strokeColor=#0F8B8D;fontColor=#143642;" parent="1" vertex="1">
          <mxGeometry x="-4340" y="-40" width="20" height="20" as="geometry" />
        </mxCell>
        <mxCell id="7M5ssbUfigBpuXdD1gi4-9" value="8" style="rounded=0;whiteSpace=wrap;html=1;strokeWidth=0.5;labelBackgroundColor=none;fillColor=#FAE5C7;strokeColor=#0F8B8D;fontColor=#143642;" parent="1" vertex="1">
          <mxGeometry x="-4320" y="-40" width="20" height="20" as="geometry" />
        </mxCell>
        <mxCell id="7M5ssbUfigBpuXdD1gi4-11" value="5" style="rounded=0;whiteSpace=wrap;html=1;strokeWidth=0.5;labelBackgroundColor=none;fillColor=#dae8fc;strokeColor=#6c8ebf;" parent="1" vertex="1">
          <mxGeometry x="-4440" y="-160" width="20" height="20" as="geometry" />
        </mxCell>
        <mxCell id="7M5ssbUfigBpuXdD1gi4-12" value="2" style="rounded=0;whiteSpace=wrap;html=1;strokeWidth=0.5;labelBackgroundColor=none;fillColor=#FAE5C7;strokeColor=#0F8B8D;fontColor=#143642;" parent="1" vertex="1">
          <mxGeometry x="-4420" y="-160" width="20" height="20" as="geometry" />
        </mxCell>
        <mxCell id="7M5ssbUfigBpuXdD1gi4-13" value="10" style="rounded=0;whiteSpace=wrap;html=1;strokeWidth=0.5;labelBackgroundColor=none;fillColor=#e1d5e7;strokeColor=#9673a6;" parent="1" vertex="1">
          <mxGeometry x="-4400" y="-160" width="20" height="20" as="geometry" />
        </mxCell>
        <mxCell id="7M5ssbUfigBpuXdD1gi4-14" value="7" style="rounded=0;whiteSpace=wrap;html=1;strokeWidth=0.5;labelBackgroundColor=none;fillColor=#FAE5C7;strokeColor=#0F8B8D;fontColor=#143642;" parent="1" vertex="1">
          <mxGeometry x="-4380" y="-160" width="20" height="20" as="geometry" />
        </mxCell>
        <mxCell id="7M5ssbUfigBpuXdD1gi4-15" value="6" style="rounded=0;whiteSpace=wrap;html=1;strokeWidth=0.5;labelBackgroundColor=none;fillColor=#FAE5C7;strokeColor=#0F8B8D;fontColor=#143642;" parent="1" vertex="1">
          <mxGeometry x="-4360" y="-160" width="20" height="20" as="geometry" />
        </mxCell>
        <mxCell id="7M5ssbUfigBpuXdD1gi4-16" value="3" style="rounded=0;whiteSpace=wrap;html=1;strokeWidth=0.5;labelBackgroundColor=none;fillColor=#FAE5C7;strokeColor=#0F8B8D;fontColor=#143642;" parent="1" vertex="1">
          <mxGeometry x="-4340" y="-160" width="20" height="20" as="geometry" />
        </mxCell>
        <mxCell id="7M5ssbUfigBpuXdD1gi4-17" value="8" style="rounded=0;whiteSpace=wrap;html=1;strokeWidth=0.5;labelBackgroundColor=none;fillColor=#FAE5C7;strokeColor=#0F8B8D;fontColor=#143642;" parent="1" vertex="1">
          <mxGeometry x="-4320" y="-160" width="20" height="20" as="geometry" />
        </mxCell>
        <mxCell id="7M5ssbUfigBpuXdD1gi4-18" value="4" style="rounded=0;whiteSpace=wrap;html=1;strokeWidth=0.5;labelBackgroundColor=none;fillColor=#e1d5e7;strokeColor=#9673a6;" parent="1" vertex="1">
          <mxGeometry x="-4300" y="-160" width="20" height="20" as="geometry" />
        </mxCell>
        <mxCell id="7M5ssbUfigBpuXdD1gi4-20" value="" style="endArrow=classic;startArrow=none;html=1;rounded=0;strokeColor=#A8201A;fontColor=#143642;fillColor=#FAE5C7;endSize=3;startSize=3;endFill=1;startFill=0;" parent="1" edge="1">
          <mxGeometry width="50" height="50" relative="1" as="geometry">
            <mxPoint x="-4440" y="-130" as="sourcePoint" />
            <mxPoint x="-4400" y="-130" as="targetPoint" />
          </mxGeometry>
        </mxCell>
        <mxCell id="7M5ssbUfigBpuXdD1gi4-21" value="" style="endArrow=none;startArrow=classic;html=1;rounded=0;strokeColor=#A8201A;fontColor=#143642;fillColor=#FAE5C7;endSize=3;startSize=3;endFill=0;startFill=1;" parent="1" edge="1">
          <mxGeometry width="50" height="50" relative="1" as="geometry">
            <mxPoint x="-4280" y="-130" as="sourcePoint" />
            <mxPoint x="-4260" y="-130" as="targetPoint" />
          </mxGeometry>
        </mxCell>
        <mxCell id="7M5ssbUfigBpuXdD1gi4-23" value="5" style="rounded=0;whiteSpace=wrap;html=1;strokeWidth=0.5;labelBackgroundColor=none;fillColor=#dae8fc;strokeColor=#6c8ebf;" parent="1" vertex="1">
          <mxGeometry x="-4440" y="-120" width="20" height="20" as="geometry" />
        </mxCell>
        <mxCell id="7M5ssbUfigBpuXdD1gi4-24" value="2" style="rounded=0;whiteSpace=wrap;html=1;strokeWidth=0.5;labelBackgroundColor=none;fillColor=#FAE5C7;strokeColor=#0F8B8D;fontColor=#143642;" parent="1" vertex="1">
          <mxGeometry x="-4420" y="-120" width="20" height="20" as="geometry" />
        </mxCell>
        <mxCell id="7M5ssbUfigBpuXdD1gi4-26" value="7" style="rounded=0;whiteSpace=wrap;html=1;strokeWidth=0.5;labelBackgroundColor=none;fillColor=#e1d5e7;strokeColor=#9673a6;" parent="1" vertex="1">
          <mxGeometry x="-4380" y="-120" width="20" height="20" as="geometry" />
        </mxCell>
        <mxCell id="7M5ssbUfigBpuXdD1gi4-27" value="6" style="rounded=0;whiteSpace=wrap;html=1;strokeWidth=0.5;labelBackgroundColor=none;fillColor=#FAE5C7;strokeColor=#0F8B8D;fontColor=#143642;" parent="1" vertex="1">
          <mxGeometry x="-4360" y="-120" width="20" height="20" as="geometry" />
        </mxCell>
        <mxCell id="7M5ssbUfigBpuXdD1gi4-28" value="3" style="rounded=0;whiteSpace=wrap;html=1;strokeWidth=0.5;labelBackgroundColor=none;fillColor=#e1d5e7;strokeColor=#9673a6;" parent="1" vertex="1">
          <mxGeometry x="-4340" y="-120" width="20" height="20" as="geometry" />
        </mxCell>
        <mxCell id="7M5ssbUfigBpuXdD1gi4-29" value="8" style="rounded=0;whiteSpace=wrap;html=1;strokeWidth=0.5;labelBackgroundColor=none;fillColor=#FAE5C7;strokeColor=#0F8B8D;fontColor=#143642;" parent="1" vertex="1">
          <mxGeometry x="-4320" y="-120" width="20" height="20" as="geometry" />
        </mxCell>
        <mxCell id="7M5ssbUfigBpuXdD1gi4-32" value="" style="endArrow=classic;startArrow=none;html=1;rounded=0;strokeColor=#A8201A;fontColor=#143642;fillColor=#FAE5C7;endSize=3;startSize=3;endFill=1;startFill=0;" parent="1" edge="1">
          <mxGeometry width="50" height="50" relative="1" as="geometry">
            <mxPoint x="-4400" y="-90" as="sourcePoint" />
            <mxPoint x="-4380" y="-90" as="targetPoint" />
          </mxGeometry>
        </mxCell>
        <mxCell id="7M5ssbUfigBpuXdD1gi4-33" value="" style="endArrow=none;startArrow=classic;html=1;rounded=0;strokeColor=#A8201A;fontColor=#143642;fillColor=#FAE5C7;endSize=3;startSize=3;endFill=0;startFill=1;" parent="1" edge="1">
          <mxGeometry width="50" height="50" relative="1" as="geometry">
            <mxPoint x="-4360" y="-50" as="sourcePoint" />
            <mxPoint x="-4320" y="-50" as="targetPoint" />
          </mxGeometry>
        </mxCell>
        <mxCell id="7M5ssbUfigBpuXdD1gi4-34" value="5" style="rounded=0;whiteSpace=wrap;html=1;strokeWidth=0.5;labelBackgroundColor=none;fillColor=#dae8fc;strokeColor=#6c8ebf;" parent="1" vertex="1">
          <mxGeometry x="-4440" y="-80" width="20" height="20" as="geometry" />
        </mxCell>
        <mxCell id="7M5ssbUfigBpuXdD1gi4-38" value="6" style="rounded=0;whiteSpace=wrap;html=1;strokeWidth=0.5;labelBackgroundColor=none;fillColor=#FAE5C7;strokeColor=#0F8B8D;fontColor=#143642;" parent="1" vertex="1">
          <mxGeometry x="-4360" y="-80" width="20" height="20" as="geometry" />
        </mxCell>
        <mxCell id="7M5ssbUfigBpuXdD1gi4-40" value="8" style="rounded=0;whiteSpace=wrap;html=1;strokeWidth=0.5;labelBackgroundColor=none;fillColor=#FAE5C7;strokeColor=#0F8B8D;fontColor=#143642;" parent="1" vertex="1">
          <mxGeometry x="-4320" y="-80" width="20" height="20" as="geometry" />
        </mxCell>
        <mxCell id="7M5ssbUfigBpuXdD1gi4-43" value="4" style="rounded=0;whiteSpace=wrap;html=1;strokeWidth=0.5;labelBackgroundColor=none;fillColor=#FAE5C7;strokeColor=#0F8B8D;fontColor=#143642;" parent="1" vertex="1">
          <mxGeometry x="-4280" y="-490" width="20" height="20" as="geometry" />
        </mxCell>
        <mxCell id="7M5ssbUfigBpuXdD1gi4-44" value="10" style="rounded=0;whiteSpace=wrap;html=1;strokeWidth=0.5;labelBackgroundColor=none;fillColor=#FAE5C7;strokeColor=#0F8B8D;fontColor=#143642;" parent="1" vertex="1">
          <mxGeometry x="-4300" y="-120" width="20" height="20" as="geometry" />
        </mxCell>
        <mxCell id="7M5ssbUfigBpuXdD1gi4-45" value="10" style="rounded=0;whiteSpace=wrap;html=1;strokeWidth=0.5;labelBackgroundColor=none;fillColor=#FAE5C7;strokeColor=#0F8B8D;fontColor=#143642;" parent="1" vertex="1">
          <mxGeometry x="-4300" y="-80" width="20" height="20" as="geometry" />
        </mxCell>
        <mxCell id="7M5ssbUfigBpuXdD1gi4-46" value="4" style="rounded=0;whiteSpace=wrap;html=1;strokeWidth=0.5;labelBackgroundColor=none;fillColor=#FAE5C7;strokeColor=#0F8B8D;fontColor=#143642;" parent="1" vertex="1">
          <mxGeometry x="-4400" y="-120" width="20" height="20" as="geometry" />
        </mxCell>
        <mxCell id="7M5ssbUfigBpuXdD1gi4-47" value="2" style="rounded=0;whiteSpace=wrap;html=1;strokeWidth=0.5;labelBackgroundColor=none;fillColor=#FAE5C7;strokeColor=#0F8B8D;fontColor=#143642;" parent="1" vertex="1">
          <mxGeometry x="-4420" y="-80" width="20" height="20" as="geometry" />
        </mxCell>
        <mxCell id="7M5ssbUfigBpuXdD1gi4-48" value="4" style="rounded=0;whiteSpace=wrap;html=1;strokeWidth=0.5;labelBackgroundColor=none;fillColor=#FAE5C7;strokeColor=#0F8B8D;fontColor=#143642;" parent="1" vertex="1">
          <mxGeometry x="-4400" y="-80" width="20" height="20" as="geometry" />
        </mxCell>
        <mxCell id="7M5ssbUfigBpuXdD1gi4-49" value="3" style="rounded=0;whiteSpace=wrap;html=1;strokeWidth=0.5;labelBackgroundColor=none;fillColor=#e1d5e7;strokeColor=#9673a6;" parent="1" vertex="1">
          <mxGeometry x="-4380" y="-80" width="20" height="20" as="geometry" />
        </mxCell>
        <mxCell id="7M5ssbUfigBpuXdD1gi4-51" value="7" style="rounded=0;whiteSpace=wrap;html=1;strokeWidth=0.5;labelBackgroundColor=none;fillColor=#FAE5C7;strokeColor=#0F8B8D;fontColor=#143642;" parent="1" vertex="1">
          <mxGeometry x="-4340" y="-80" width="20" height="20" as="geometry" />
        </mxCell>
        <mxCell id="7M5ssbUfigBpuXdD1gi4-52" value="" style="endArrow=classic;startArrow=none;html=1;rounded=0;strokeColor=#A8201A;fontColor=#143642;fillColor=#FAE5C7;endSize=3;startSize=3;endFill=1;startFill=0;" parent="1" edge="1">
          <mxGeometry width="50" height="50" relative="1" as="geometry">
            <mxPoint x="-4380" y="-50" as="sourcePoint" />
            <mxPoint x="-4360" y="-50" as="targetPoint" />
          </mxGeometry>
        </mxCell>
        <mxCell id="7M5ssbUfigBpuXdD1gi4-53" value="" style="endArrow=none;startArrow=classic;html=1;rounded=0;strokeColor=#A8201A;fontColor=#143642;fillColor=#FAE5C7;endSize=3;startSize=3;endFill=0;startFill=1;" parent="1" edge="1">
          <mxGeometry width="50" height="50" relative="1" as="geometry">
            <mxPoint x="-4320" y="-90" as="sourcePoint" />
            <mxPoint x="-4280" y="-90" as="targetPoint" />
          </mxGeometry>
        </mxCell>
        <mxCell id="7M5ssbUfigBpuXdD1gi4-54" value="i" style="text;html=1;align=center;verticalAlign=middle;resizable=0;points=[];autosize=1;strokeColor=none;fillColor=none;fontColor=#A8201A;" parent="1" vertex="1">
          <mxGeometry x="-4460" y="-144" width="30" height="30" as="geometry" />
        </mxCell>
        <mxCell id="7M5ssbUfigBpuXdD1gi4-55" value="j" style="text;html=1;align=center;verticalAlign=middle;resizable=0;points=[];autosize=1;strokeColor=none;fillColor=none;fontColor=#A8201A;" parent="1" vertex="1">
          <mxGeometry x="-4269" y="-145" width="30" height="30" as="geometry" />
        </mxCell>
        <mxCell id="7M5ssbUfigBpuXdD1gi4-61" value="3" style="rounded=0;whiteSpace=wrap;html=1;strokeWidth=0.5;labelBackgroundColor=none;fillColor=#dae8fc;strokeColor=#6c8ebf;" parent="1" vertex="1">
          <mxGeometry x="-4460" width="20" height="20" as="geometry" />
        </mxCell>
        <mxCell id="7M5ssbUfigBpuXdD1gi4-62" value="2" style="rounded=0;whiteSpace=wrap;html=1;strokeWidth=0.5;labelBackgroundColor=none;fillColor=#e1d5e7;strokeColor=#9673a6;" parent="1" vertex="1">
          <mxGeometry x="-4440" width="20" height="20" as="geometry" />
        </mxCell>
        <mxCell id="7M5ssbUfigBpuXdD1gi4-63" value="4" style="rounded=0;whiteSpace=wrap;html=1;strokeWidth=0.5;labelBackgroundColor=none;fillColor=#FAE5C7;strokeColor=#0F8B8D;fontColor=#143642;" parent="1" vertex="1">
          <mxGeometry x="-4420" width="20" height="20" as="geometry" />
        </mxCell>
        <mxCell id="7M5ssbUfigBpuXdD1gi4-64" value="10" style="rounded=0;whiteSpace=wrap;html=1;strokeWidth=0.5;labelBackgroundColor=none;fillColor=#FAE5C7;strokeColor=#0F8B8D;fontColor=#143642;" parent="1" vertex="1">
          <mxGeometry x="-4280" width="20" height="20" as="geometry" />
        </mxCell>
        <mxCell id="7M5ssbUfigBpuXdD1gi4-65" value="6" style="rounded=0;whiteSpace=wrap;html=1;strokeWidth=0.5;labelBackgroundColor=none;fillColor=#dae8fc;strokeColor=#6c8ebf;" parent="1" vertex="1">
          <mxGeometry x="-4340" width="20" height="20" as="geometry" />
        </mxCell>
        <mxCell id="7M5ssbUfigBpuXdD1gi4-66" value="7" style="rounded=0;whiteSpace=wrap;html=1;strokeWidth=0.5;labelBackgroundColor=none;fillColor=#FAE5C7;strokeColor=#0F8B8D;fontColor=#143642;" parent="1" vertex="1">
          <mxGeometry x="-4320" width="20" height="20" as="geometry" />
        </mxCell>
        <mxCell id="7M5ssbUfigBpuXdD1gi4-67" value="8" style="rounded=0;whiteSpace=wrap;html=1;strokeWidth=0.5;labelBackgroundColor=none;fillColor=#FAE5C7;strokeColor=#0F8B8D;fontColor=#143642;" parent="1" vertex="1">
          <mxGeometry x="-4300" width="20" height="20" as="geometry" />
        </mxCell>
        <mxCell id="7M5ssbUfigBpuXdD1gi4-68" value="" style="endArrow=classic;startArrow=none;html=1;rounded=0;strokeColor=#A8201A;fontColor=#143642;fillColor=#FAE5C7;endSize=3;startSize=3;endFill=1;startFill=0;" parent="1" edge="1">
          <mxGeometry width="50" height="50" relative="1" as="geometry">
            <mxPoint x="-4460" y="30" as="sourcePoint" />
            <mxPoint x="-4420" y="30" as="targetPoint" />
          </mxGeometry>
        </mxCell>
        <mxCell id="7M5ssbUfigBpuXdD1gi4-69" value="" style="endArrow=none;startArrow=classic;html=1;rounded=0;strokeColor=#A8201A;fontColor=#143642;fillColor=#FAE5C7;endSize=3;startSize=3;endFill=0;startFill=1;" parent="1" edge="1">
          <mxGeometry width="50" height="50" relative="1" as="geometry">
            <mxPoint x="-4420" y="30" as="sourcePoint" />
            <mxPoint x="-4380" y="30" as="targetPoint" />
          </mxGeometry>
        </mxCell>
        <mxCell id="7M5ssbUfigBpuXdD1gi4-70" value="2" style="rounded=0;whiteSpace=wrap;html=1;strokeWidth=0.5;labelBackgroundColor=none;fillColor=#f8cecc;strokeColor=#b85450;" parent="1" vertex="1">
          <mxGeometry x="-4460" y="40" width="20" height="20" as="geometry" />
        </mxCell>
        <mxCell id="7M5ssbUfigBpuXdD1gi4-71" value="3" style="rounded=0;whiteSpace=wrap;html=1;strokeWidth=0.5;labelBackgroundColor=none;fillColor=#f8cecc;strokeColor=#b85450;" parent="1" vertex="1">
          <mxGeometry x="-4440" y="40" width="20" height="20" as="geometry" />
        </mxCell>
        <mxCell id="7M5ssbUfigBpuXdD1gi4-72" value="4" style="rounded=0;whiteSpace=wrap;html=1;strokeWidth=0.5;labelBackgroundColor=none;fillColor=#f8cecc;strokeColor=#b85450;" parent="1" vertex="1">
          <mxGeometry x="-4420" y="40" width="20" height="20" as="geometry" />
        </mxCell>
        <mxCell id="7M5ssbUfigBpuXdD1gi4-74" value="" style="endArrow=none;startArrow=classic;html=1;rounded=0;strokeColor=#A8201A;fontColor=#143642;fillColor=#FAE5C7;endSize=3;startSize=3;endFill=0;startFill=1;" parent="1" edge="1">
          <mxGeometry width="50" height="50" relative="1" as="geometry">
            <mxPoint x="-4320" y="30" as="sourcePoint" />
            <mxPoint x="-4240" y="30" as="targetPoint" />
          </mxGeometry>
        </mxCell>
        <mxCell id="7M5ssbUfigBpuXdD1gi4-81" value="10" style="rounded=0;whiteSpace=wrap;html=1;strokeWidth=0.5;labelBackgroundColor=none;fillColor=#FAE5C7;strokeColor=#0F8B8D;fontColor=#143642;" parent="1" vertex="1">
          <mxGeometry x="-4280" y="40" width="20" height="20" as="geometry" />
        </mxCell>
        <mxCell id="7M5ssbUfigBpuXdD1gi4-82" value="6" style="rounded=0;whiteSpace=wrap;html=1;strokeWidth=0.5;labelBackgroundColor=none;fillColor=#f8cecc;strokeColor=#b85450;" parent="1" vertex="1">
          <mxGeometry x="-4340" y="40" width="20" height="20" as="geometry" />
        </mxCell>
        <mxCell id="7M5ssbUfigBpuXdD1gi4-83" value="7" style="rounded=0;whiteSpace=wrap;html=1;strokeWidth=0.5;labelBackgroundColor=none;fillColor=#dae8fc;strokeColor=#6c8ebf;" parent="1" vertex="1">
          <mxGeometry x="-4320" y="40" width="20" height="20" as="geometry" />
        </mxCell>
        <mxCell id="7M5ssbUfigBpuXdD1gi4-84" value="8" style="rounded=0;whiteSpace=wrap;html=1;strokeWidth=0.5;labelBackgroundColor=none;fillColor=#FAE5C7;strokeColor=#0F8B8D;fontColor=#143642;" parent="1" vertex="1">
          <mxGeometry x="-4300" y="40" width="20" height="20" as="geometry" />
        </mxCell>
        <mxCell id="7M5ssbUfigBpuXdD1gi4-86" value="10" style="rounded=0;whiteSpace=wrap;html=1;strokeWidth=0.5;labelBackgroundColor=none;fillColor=#FAE5C7;strokeColor=#0F8B8D;fontColor=#143642;" parent="1" vertex="1">
          <mxGeometry x="-4280" y="80" width="20" height="20" as="geometry" />
        </mxCell>
        <mxCell id="7M5ssbUfigBpuXdD1gi4-87" value="6" style="rounded=0;whiteSpace=wrap;html=1;strokeWidth=0.5;labelBackgroundColor=none;fillColor=#f8cecc;strokeColor=#b85450;" parent="1" vertex="1">
          <mxGeometry x="-4340" y="80" width="20" height="20" as="geometry" />
        </mxCell>
        <mxCell id="7M5ssbUfigBpuXdD1gi4-88" value="7" style="rounded=0;whiteSpace=wrap;html=1;strokeWidth=0.5;labelBackgroundColor=none;fillColor=#f8cecc;strokeColor=#b85450;" parent="1" vertex="1">
          <mxGeometry x="-4320" y="80" width="20" height="20" as="geometry" />
        </mxCell>
        <mxCell id="7M5ssbUfigBpuXdD1gi4-89" value="8" style="rounded=0;whiteSpace=wrap;html=1;strokeWidth=0.5;labelBackgroundColor=none;fillColor=#dae8fc;strokeColor=#6c8ebf;" parent="1" vertex="1">
          <mxGeometry x="-4300" y="80" width="20" height="20" as="geometry" />
        </mxCell>
        <mxCell id="7M5ssbUfigBpuXdD1gi4-90" value="10" style="rounded=0;whiteSpace=wrap;html=1;strokeWidth=0.5;labelBackgroundColor=none;fillColor=#f8cecc;strokeColor=#b85450;" parent="1" vertex="1">
          <mxGeometry x="-4280" y="120" width="20" height="20" as="geometry" />
        </mxCell>
        <mxCell id="7M5ssbUfigBpuXdD1gi4-91" value="6" style="rounded=0;whiteSpace=wrap;html=1;strokeWidth=0.5;labelBackgroundColor=none;fillColor=#f8cecc;strokeColor=#b85450;" parent="1" vertex="1">
          <mxGeometry x="-4340" y="120" width="20" height="20" as="geometry" />
        </mxCell>
        <mxCell id="7M5ssbUfigBpuXdD1gi4-92" value="7" style="rounded=0;whiteSpace=wrap;html=1;strokeWidth=0.5;labelBackgroundColor=none;fillColor=#f8cecc;strokeColor=#b85450;" parent="1" vertex="1">
          <mxGeometry x="-4320" y="120" width="20" height="20" as="geometry" />
        </mxCell>
        <mxCell id="7M5ssbUfigBpuXdD1gi4-93" value="8" style="rounded=0;whiteSpace=wrap;html=1;strokeWidth=0.5;labelBackgroundColor=none;fillColor=#f8cecc;strokeColor=#b85450;" parent="1" vertex="1">
          <mxGeometry x="-4300" y="120" width="20" height="20" as="geometry" />
        </mxCell>
        <mxCell id="7M5ssbUfigBpuXdD1gi4-95" value="" style="endArrow=classic;startArrow=none;html=1;rounded=0;strokeColor=#A8201A;fontColor=#143642;fillColor=#FAE5C7;endSize=3;startSize=3;endFill=1;startFill=0;" parent="1" edge="1">
          <mxGeometry width="50" height="50" relative="1" as="geometry">
            <mxPoint x="-4300" y="110" as="sourcePoint" />
            <mxPoint x="-4280" y="110" as="targetPoint" />
          </mxGeometry>
        </mxCell>
        <mxCell id="7M5ssbUfigBpuXdD1gi4-96" value="" style="endArrow=classic;startArrow=none;html=1;rounded=0;strokeColor=#A8201A;fontColor=#143642;fillColor=#FAE5C7;endSize=3;startSize=3;endFill=1;startFill=0;" parent="1" edge="1">
          <mxGeometry width="50" height="50" relative="1" as="geometry">
            <mxPoint x="-4320" y="70" as="sourcePoint" />
            <mxPoint x="-4300" y="70" as="targetPoint" />
          </mxGeometry>
        </mxCell>
        <mxCell id="7M5ssbUfigBpuXdD1gi4-97" value="" style="endArrow=classic;startArrow=none;html=1;rounded=0;strokeColor=#A8201A;fontColor=#143642;fillColor=#FAE5C7;endSize=3;startSize=3;endFill=1;startFill=0;" parent="1" edge="1">
          <mxGeometry width="50" height="50" relative="1" as="geometry">
            <mxPoint x="-4340" y="30" as="sourcePoint" />
            <mxPoint x="-4320" y="30" as="targetPoint" />
          </mxGeometry>
        </mxCell>
        <mxCell id="7M5ssbUfigBpuXdD1gi4-98" value="" style="endArrow=none;startArrow=classic;html=1;rounded=0;strokeColor=#A8201A;fontColor=#143642;fillColor=#FAE5C7;endSize=3;startSize=3;endFill=0;startFill=1;" parent="1" edge="1">
          <mxGeometry width="50" height="50" relative="1" as="geometry">
            <mxPoint x="-4300" y="70" as="sourcePoint" />
            <mxPoint x="-4240" y="70" as="targetPoint" />
          </mxGeometry>
        </mxCell>
        <mxCell id="7M5ssbUfigBpuXdD1gi4-99" value="" style="endArrow=none;startArrow=classic;html=1;rounded=0;strokeColor=#A8201A;fontColor=#143642;fillColor=#FAE5C7;endSize=3;startSize=3;endFill=0;startFill=1;" parent="1" edge="1">
          <mxGeometry width="50" height="50" relative="1" as="geometry">
            <mxPoint x="-4280" y="110" as="sourcePoint" />
            <mxPoint x="-4240" y="110" as="targetPoint" />
          </mxGeometry>
        </mxCell>
        <mxCell id="7M5ssbUfigBpuXdD1gi4-100" value="10" style="rounded=0;whiteSpace=wrap;html=1;strokeWidth=0.5;labelBackgroundColor=none;fillColor=#f8cecc;strokeColor=#b85450;" parent="1" vertex="1">
          <mxGeometry x="-4300" y="160" width="20" height="20" as="geometry" />
        </mxCell>
        <mxCell id="7M5ssbUfigBpuXdD1gi4-101" value="6" style="rounded=0;whiteSpace=wrap;html=1;strokeWidth=0.5;labelBackgroundColor=none;fillColor=#f8cecc;strokeColor=#b85450;" parent="1" vertex="1">
          <mxGeometry x="-4360" y="160" width="20" height="20" as="geometry" />
        </mxCell>
        <mxCell id="7M5ssbUfigBpuXdD1gi4-102" value="7" style="rounded=0;whiteSpace=wrap;html=1;strokeWidth=0.5;labelBackgroundColor=none;fillColor=#f8cecc;strokeColor=#b85450;" parent="1" vertex="1">
          <mxGeometry x="-4340" y="160" width="20" height="20" as="geometry" />
        </mxCell>
        <mxCell id="7M5ssbUfigBpuXdD1gi4-103" value="8" style="rounded=0;whiteSpace=wrap;html=1;strokeWidth=0.5;labelBackgroundColor=none;fillColor=#f8cecc;strokeColor=#b85450;" parent="1" vertex="1">
          <mxGeometry x="-4320" y="160" width="20" height="20" as="geometry" />
        </mxCell>
        <mxCell id="7M5ssbUfigBpuXdD1gi4-104" value="5" style="rounded=0;whiteSpace=wrap;html=1;strokeWidth=0.5;labelBackgroundColor=none;fillColor=#f8cecc;strokeColor=#b85450;" parent="1" vertex="1">
          <mxGeometry x="-4380" y="160" width="20" height="20" as="geometry" />
        </mxCell>
        <mxCell id="7M5ssbUfigBpuXdD1gi4-105" value="2" style="rounded=0;whiteSpace=wrap;html=1;strokeWidth=0.5;labelBackgroundColor=none;fillColor=#f8cecc;strokeColor=#b85450;" parent="1" vertex="1">
          <mxGeometry x="-4440" y="160" width="20" height="20" as="geometry" />
        </mxCell>
        <mxCell id="7M5ssbUfigBpuXdD1gi4-106" value="3" style="rounded=0;whiteSpace=wrap;html=1;strokeWidth=0.5;labelBackgroundColor=none;fillColor=#f8cecc;strokeColor=#b85450;" parent="1" vertex="1">
          <mxGeometry x="-4420" y="160" width="20" height="20" as="geometry" />
        </mxCell>
        <mxCell id="7M5ssbUfigBpuXdD1gi4-107" value="4" style="rounded=0;whiteSpace=wrap;html=1;strokeWidth=0.5;labelBackgroundColor=none;fillColor=#f8cecc;strokeColor=#b85450;" parent="1" vertex="1">
          <mxGeometry x="-4400" y="160" width="20" height="20" as="geometry" />
        </mxCell>
        <mxCell id="7M5ssbUfigBpuXdD1gi4-108" value="左边比较2次&amp;nbsp; 右边比较1次&amp;nbsp; 交换10与4" style="text;html=1;align=center;verticalAlign=middle;resizable=0;points=[];autosize=1;strokeColor=none;fillColor=none;" parent="1" vertex="1">
          <mxGeometry x="-4671" y="-143" width="230" height="30" as="geometry" />
        </mxCell>
        <mxCell id="7M5ssbUfigBpuXdD1gi4-110" value="左边比较1次&amp;nbsp; 右边比较2次&amp;nbsp; 交换7与3" style="text;html=1;align=center;verticalAlign=middle;resizable=0;points=[];autosize=1;strokeColor=none;fillColor=none;" parent="1" vertex="1">
          <mxGeometry x="-4670" y="-104" width="220" height="30" as="geometry" />
        </mxCell>
        <mxCell id="7M5ssbUfigBpuXdD1gi4-111" value="左边比较1次&amp;nbsp; 右边比较2次&amp;nbsp; 相遇&amp;nbsp; 排定5" style="text;html=1;align=center;verticalAlign=middle;resizable=0;points=[];autosize=1;strokeColor=none;fillColor=none;" parent="1" vertex="1">
          <mxGeometry x="-4670" y="-65" width="230" height="30" as="geometry" />
        </mxCell>
        <mxCell id="7M5ssbUfigBpuXdD1gi4-112" value="左边比较2次&amp;nbsp; 右边比较2次&amp;nbsp; 相遇&amp;nbsp; 排定3" style="text;html=1;align=center;verticalAlign=middle;resizable=0;points=[];autosize=1;strokeColor=none;fillColor=none;" parent="1" vertex="1">
          <mxGeometry x="-4691" y="17" width="230" height="30" as="geometry" />
        </mxCell>
        <mxCell id="7M5ssbUfigBpuXdD1gi4-113" value="左边比较1次&amp;nbsp; 右边比较3次&amp;nbsp; 相遇&amp;nbsp; 排定6" style="text;html=1;align=center;verticalAlign=middle;resizable=0;points=[];autosize=1;strokeColor=none;fillColor=none;" parent="1" vertex="1">
          <mxGeometry x="-4240" y="15" width="230" height="30" as="geometry" />
        </mxCell>
        <mxCell id="7M5ssbUfigBpuXdD1gi4-114" value="左边比较1次&amp;nbsp; 右边比较2次&amp;nbsp; 相遇&amp;nbsp; 排定7" style="text;html=1;align=center;verticalAlign=middle;resizable=0;points=[];autosize=1;strokeColor=none;fillColor=none;" parent="1" vertex="1">
          <mxGeometry x="-4241" y="55" width="230" height="30" as="geometry" />
        </mxCell>
        <mxCell id="7M5ssbUfigBpuXdD1gi4-115" value="左边比较1次&amp;nbsp; 右边比较1次&amp;nbsp; 相遇&amp;nbsp; 排定8" style="text;html=1;align=center;verticalAlign=middle;resizable=0;points=[];autosize=1;strokeColor=none;fillColor=none;" parent="1" vertex="1">
          <mxGeometry x="-4241" y="95" width="230" height="30" as="geometry" />
        </mxCell>
        <mxCell id="7M5ssbUfigBpuXdD1gi4-117" value="" style="endArrow=none;dashed=1;html=1;rounded=0;labelBackgroundColor=default;strokeColor=#A8201A;fontFamily=Helvetica;fontSize=11;fontColor=default;endSize=4;shape=connector;" parent="1" edge="1">
          <mxGeometry width="50" height="50" relative="1" as="geometry">
            <mxPoint x="-4680" y="-10" as="sourcePoint" />
            <mxPoint x="-4020" y="-10" as="targetPoint" />
          </mxGeometry>
        </mxCell>
        <mxCell id="7M5ssbUfigBpuXdD1gi4-118" value="第一趟排定5 将数组分为左右两部分继续递归" style="text;html=1;align=center;verticalAlign=middle;resizable=0;points=[];autosize=1;strokeColor=none;fillColor=none;fontSize=10;fontColor=#A8201A;" parent="1" vertex="1">
          <mxGeometry x="-4240" y="-40" width="220" height="30" as="geometry" />
        </mxCell>
      </root>
    </mxGraphModel>
  </diagram>
</mxfile>
